<svg width="288" height="321" viewBox="0 0 288 321" fill="none" xmlns="http://www.w3.org/2000/svg">
<path d="M284 140.177C284 180.396 251.302 213 210.967 213C170.631 213 137.933 180.396 137.933 140.177C137.933 99.9579 170.631 67.354 210.967 67.354C251.302 67.354 284 99.9579 284 140.177Z" fill="#EBF0F4"/>
<path d="M247.483 97.7995C247.483 138.019 214.785 170.622 174.45 170.622C134.115 170.622 101.416 138.019 101.416 97.7995C101.416 57.5805 134.115 24.9766 174.45 24.9766C214.785 24.9766 247.483 57.5805 247.483 97.7995Z" fill="#EBF0F4"/>
<path fill-rule="evenodd" clip-rule="evenodd" d="M63.8817 4.37442C71.6742 -1.45769 82.3929 -1.45823 90.1858 4.37335L214.342 97.2823C219.855 101.408 223.1 107.882 223.1 114.756V191.153C223.1 203.219 213.291 213 201.19 213H25.91C13.8095 213 4.00001 203.219 4 191.153V60.1096C4.00004 53.2361 7.24412 46.7632 12.7572 42.637L63.8817 4.37442ZM72.145 151.31C60.0444 151.31 50.235 161.091 50.235 173.156V213H95.2917V173.156C95.2917 161.091 85.4823 151.31 73.3817 151.31H72.145Z" fill="#56AFDF"/>
<path d="M3.8125 308V262.75H21.5625C31.875 262.75 37.75 269.062 37.75 278C37.75 287.062 31.75 293.25 21.3125 293.25H13.1875V308H3.8125ZM13.1875 285.688H19.8125C25.375 285.688 28.0625 282.562 28.0625 278C28.0625 273.5 25.375 270.438 19.8125 270.438H13.1875V285.688ZM42.86 308V274.062H51.7975V279.938H52.1725C53.4225 275.75 56.5475 273.562 60.36 273.562C61.2975 273.562 62.485 273.688 63.2975 273.875V282.125C62.4225 281.875 60.6725 281.625 59.36 281.625C55.1725 281.625 52.11 284.562 52.11 288.688V308H42.86ZM81.345 308.688C71.095 308.688 64.72 301.625 64.72 291.125C64.72 280.625 71.095 273.625 81.345 273.625C91.595 273.625 98.0325 280.625 98.0325 291.125C98.0325 301.625 91.595 308.688 81.345 308.688ZM81.4075 301.5C86.1575 301.5 88.595 297.062 88.595 291.125C88.595 285.125 86.1575 280.688 81.4075 280.688C76.595 280.688 74.095 285.125 74.095 291.125C74.095 297.062 76.595 301.5 81.4075 301.5ZM103.205 274.062H112.455V309.688C112.455 317.5 107.643 320.75 99.705 320.75L97.83 320.688V313.438C98.33 313.438 98.6425 313.5 99.08 313.5C102.08 313.5 103.205 312.125 103.205 309.562V274.062ZM107.768 269.625C104.955 269.625 102.705 267.5 102.705 264.938C102.705 262.312 104.955 260.188 107.768 260.188C110.518 260.188 112.768 262.312 112.768 264.938C112.768 267.5 110.518 269.625 107.768 269.625ZM134.378 308.688C124.003 308.688 117.628 301.938 117.628 291.188C117.628 280.688 124.065 273.625 134.003 273.625C142.94 273.625 149.94 279.25 149.94 290.812V293.438H126.753C126.753 298.562 129.815 301.75 134.565 301.75C137.69 301.75 139.94 300.375 140.878 298.312H149.69C148.378 304.562 142.753 308.688 134.378 308.688ZM126.753 287.625H141.19C141.19 283.5 138.315 280.562 134.19 280.562C129.94 280.562 126.909 283.719 126.753 287.625ZM170.363 308.688C159.988 308.688 153.738 301.5 153.738 291.125C153.738 280.75 160.05 273.625 170.363 273.625C179.113 273.625 185.05 278.75 185.425 286.5H176.738C176.175 283.125 173.988 280.812 170.488 280.812C166.05 280.812 163.113 284.562 163.113 291C163.113 297.562 165.988 301.312 170.488 301.312C173.738 301.312 176.175 299.312 176.738 295.688H185.425C184.988 303.375 179.363 308.688 170.363 308.688ZM208.41 274.062V281H202.035V297.562C202.035 300.25 203.348 300.938 205.223 301C206.16 301 207.785 300.938 208.91 300.812V308.125C207.91 308.312 206.285 308.438 203.973 308.438C197.285 308.438 192.723 305.438 192.785 298.875V281H188.098V274.062H192.785V265.938H202.035V274.062H208.41ZM227.88 308V262.75H237.255V281.5H256.88V262.75H266.318V308H256.88V289.25H237.255V308H227.88Z" fill="#56AFDF"/>
<path d="M278.552 308.562C275.615 308.562 273.24 306.188 273.302 303.312C273.24 300.438 275.615 298.125 278.552 298.125C281.302 298.125 283.74 300.438 283.74 303.312C283.74 306.188 281.302 308.562 278.552 308.562Z" fill="#EBF0F4"/>
</svg>
