<svg width="1920" height="866" viewBox="0 0 1920 866" fill="none" xmlns="http://www.w3.org/2000/svg">
<rect width="1920" height="866" fill="white"/>
<path d="M779.531 381.531V409.781H776.031V381.531H779.531ZM771.094 384.531C771.094 392.938 767.844 400.094 757.938 404.781L756.125 402C763.516 398.484 766.953 393.703 767.562 387.281H757.562V384.531H771.094ZM801.952 383.781V386.344H785.234V383.781H791.827V381.375H795.296V383.781H801.952ZM793.609 387.156C797.734 387.125 800.546 388.781 800.546 391.406C800.546 393.625 798.484 395.109 795.296 395.5V397C797.687 396.891 800.077 396.688 802.327 396.406L802.577 398.781C796.515 399.812 789.827 399.906 784.827 399.906L784.359 397.219C786.609 397.234 789.171 397.219 791.827 397.125V395.469C788.624 395.094 786.609 393.609 786.64 391.406C786.609 388.781 789.39 387.125 793.609 387.156ZM793.609 389.5C791.39 389.469 789.952 390.156 789.984 391.406C789.952 392.562 791.39 393.25 793.609 393.219C795.765 393.25 797.202 392.562 797.234 391.406C797.202 390.156 795.765 389.469 793.609 389.5ZM807.796 381.594V400.594H804.296V381.594H807.796ZM807.796 401.75V409.781H804.296V404.469H788.359V401.75H807.796ZM827.107 381.188V410.188H823.389V381.188H827.107ZM841.637 407V384.375H850.137C855.325 384.375 858.106 387.531 858.106 391.875C858.106 396.219 855.294 399.344 850.075 399.344H845.7V407H841.637ZM845.7 396H849.512C852.575 396 853.95 394.281 853.95 391.875C853.95 389.438 852.575 387.781 849.512 387.781H845.7V396ZM865.84 384.375V407H861.84V384.375H865.84ZM869.511 402.219C869.511 398.406 872.668 397.281 875.824 397.094C876.996 397.016 879.433 396.875 880.168 396.844V395.5C880.168 393.812 879.074 392.844 877.105 392.844C875.324 392.844 874.23 393.656 873.918 394.875H870.074C870.355 392 872.949 389.812 877.199 389.812C880.418 389.812 884.136 391.125 884.136 395.656V407H880.324V404.656H880.199C879.449 406.094 877.855 407.344 875.199 407.344C871.949 407.344 869.511 405.562 869.511 402.219ZM873.355 402.188C873.355 403.656 874.543 404.406 876.23 404.406C878.636 404.406 880.199 402.812 880.199 400.906V399.5L876.449 399.75C874.543 399.906 873.355 400.688 873.355 402.188ZM892.526 397.062V407H888.526V390.031H892.339V392.906H892.557C893.339 391 895.057 389.812 897.589 389.812C901.12 389.812 903.432 392.125 903.401 396.188V407H899.432V396.812C899.432 394.531 898.214 393.188 896.12 393.188C893.995 393.188 892.526 394.594 892.526 397.062ZM911.854 397.062V407H907.854V390.031H911.666V392.906H911.885C912.666 391 914.385 389.812 916.916 389.812C920.447 389.812 922.76 392.125 922.729 396.188V407H918.76V396.812C918.76 394.531 917.541 393.188 915.447 393.188C913.322 393.188 911.854 394.594 911.854 397.062ZM934.712 407.344C929.587 407.344 926.462 403.938 926.462 398.625C926.462 393.375 929.65 389.812 934.494 389.812C938.65 389.812 942.244 392.406 942.244 398.375V399.625H930.4C930.447 402.516 932.15 404.219 934.744 404.219C936.494 404.219 937.681 403.469 938.181 402.469H942.087C941.369 405.406 938.65 407.344 934.712 407.344ZM930.431 396.906H938.431C938.4 394.594 936.869 392.906 934.556 392.906C932.15 392.906 930.556 394.734 930.431 396.906ZM945.977 407V390.031H949.852V392.844H950.04C950.634 390.906 952.29 389.781 954.227 389.781C954.665 389.781 955.29 389.812 955.665 389.875V393.562C955.321 393.438 954.477 393.312 953.821 393.312C951.602 393.312 949.977 394.844 949.977 397V407H945.977Z" fill="#494D5B"/>
<path d="M772.273 509.992V515.359H775.32V517.188H772.273V522.648H770.047V509.992H772.273ZM772.273 523.703V530.992H770.047V525.508H758.398V523.703H772.273ZM758.773 511.305V514.445H764.281V511.305H766.484V521.312H756.594V511.305H758.773ZM758.773 519.531H764.281V516.203H758.773V519.531ZM793.355 509.992V518.125H796.73V519.953H793.355V531.039H791.128V509.992H793.355ZM787.707 512.008V513.812H780.113V523.961C783.64 523.949 786.289 523.797 789.277 523.258L789.558 525.133C786.277 525.719 783.488 525.836 779.574 525.812H777.886V512.008H787.707ZM801.499 511.492V514.844H807.101V511.492H809.304V521.945H799.319V511.492H801.499ZM801.499 520.164H807.101V516.578H801.499V520.164ZM815.632 510.016V525.484H813.405V510.016H815.632ZM816.147 528.742V530.547H801.78V523.914H804.03V528.742H816.147ZM760.352 563.215C757.715 563.215 755.84 561.086 755.84 557.727C755.84 554.367 757.715 552.258 760.371 552.258C762.422 552.258 763.086 553.508 763.438 554.074H763.555V548.859H765.254V563H763.613V561.379H763.438C763.066 561.965 762.383 563.215 760.352 563.215ZM760.586 561.711C762.52 561.711 763.613 560.07 763.613 557.688C763.613 555.344 762.559 553.762 760.586 553.762C758.555 553.762 757.539 555.48 757.539 557.688C757.539 559.953 758.574 561.711 760.586 561.711ZM768.056 559.992C768.056 557.551 770.205 557.004 772.041 556.867C772.714 556.818 774.433 556.73 774.912 556.711V555.852C774.912 554.504 774.111 553.723 772.509 553.723C771.162 553.723 770.361 554.348 770.127 555.148H768.369C768.584 553.449 770.244 552.258 772.587 552.258C773.974 552.258 776.572 552.668 776.572 556.008V563H774.912V561.555H774.834C774.482 562.277 773.505 563.254 771.67 563.254C769.658 563.254 768.056 562.062 768.056 559.992ZM769.736 560.07C769.736 561.184 770.673 561.75 771.962 561.75C773.857 561.75 774.912 560.48 774.912 559.152V558.078L772.236 558.273C770.712 558.371 769.736 558.918 769.736 560.07ZM788.007 552.395L784.081 563H782.343L778.437 552.395H780.273L783.163 560.812H783.28L786.171 552.395H788.007ZM790.263 563V552.395H791.942V563H790.263ZM791.102 550.637C790.458 550.637 789.93 550.148 789.93 549.523C789.93 548.898 790.458 548.41 791.102 548.41C791.747 548.41 792.294 548.898 792.294 549.523C792.294 550.148 791.747 550.637 791.102 550.637ZM796.698 556.633V563H795.018V552.395H796.639V554.055H796.776C797.284 552.98 798.26 552.258 799.881 552.258C802.03 552.258 803.455 553.566 803.455 556.262V563H801.776V556.379C801.776 554.738 800.877 553.762 799.373 553.762C797.83 553.762 796.698 554.797 796.698 556.633ZM810.887 563.215C807.879 563.215 806.043 560.93 806.043 557.746C806.043 554.523 807.957 552.258 810.848 552.258C813.113 552.258 814.793 553.586 815.066 555.598H813.387C813.152 554.621 812.293 553.742 810.887 553.742C808.992 553.742 807.723 555.305 807.723 557.688C807.723 560.148 808.953 561.711 810.887 561.711C812.137 561.711 813.094 561.047 813.387 559.875H815.066C814.793 561.77 813.25 563.215 810.887 563.215ZM817.537 563V552.395H819.216V563H817.537ZM818.377 550.637C817.732 550.637 817.205 550.148 817.205 549.523C817.205 548.898 817.732 548.41 818.377 548.41C819.021 548.41 819.568 548.898 819.568 549.523C819.568 550.148 819.021 550.637 818.377 550.637ZM826.999 563.195C824.03 563.195 821.96 561.555 821.98 559.25C821.96 557.414 823.23 555.91 824.851 555.656V555.578C823.445 555.246 822.527 553.957 822.527 552.414C822.527 550.246 824.421 548.664 826.999 548.664C829.577 548.664 831.472 550.246 831.491 552.414C831.472 553.957 830.534 555.246 829.148 555.578V555.656C830.749 555.91 832.019 557.414 832.038 559.25C832.019 561.555 829.948 563.195 826.999 563.195ZM826.999 561.652C829.03 561.652 830.28 560.637 830.28 559.152C830.28 557.59 828.894 556.438 826.999 556.438C825.105 556.438 823.698 557.59 823.738 559.152C823.698 560.637 824.968 561.652 826.999 561.652ZM826.999 554.953C828.601 554.953 829.773 553.977 829.773 552.551C829.773 551.145 828.659 550.188 826.999 550.188C825.32 550.188 824.226 551.145 824.226 552.551C824.226 553.977 825.378 554.953 826.999 554.953ZM839.43 563.195C836.286 563.195 834.489 560.559 834.489 555.93C834.489 551.34 836.325 548.664 839.43 548.664C842.536 548.664 844.372 551.34 844.372 555.93C844.372 560.559 842.555 563.195 839.43 563.195ZM839.43 561.633C841.462 561.633 842.653 559.582 842.653 555.93C842.653 552.277 841.462 550.188 839.43 550.188C837.399 550.188 836.188 552.277 836.188 555.93C836.188 559.582 837.38 561.633 839.43 561.633ZM852.116 548.859V563H850.338V550.695H850.26L846.823 552.98V551.203L850.338 548.859H852.116ZM856.285 563L856.266 561.711L861.09 556.633C862.77 554.855 863.57 553.898 863.57 552.59C863.57 551.145 862.34 550.188 860.758 550.188C859.078 550.188 858.004 551.262 858.004 552.844H856.344C856.324 550.344 858.258 548.664 860.816 548.664C863.375 548.664 865.211 550.383 865.211 552.59C865.211 554.172 864.469 555.402 861.969 557.98L858.727 561.32V561.438H865.465V563H856.285ZM875.435 561.145C873.482 561.145 872.056 559.562 872.056 557.023C872.056 554.504 873.502 552.922 875.455 552.922C876.861 552.922 877.447 553.82 877.681 554.27H877.779V553.078H879.263V558.781C879.283 559.543 879.615 559.914 880.24 559.914C881.451 559.914 882.252 558.508 882.271 556.477C882.291 552.785 879.615 550.383 875.884 550.383C872.017 550.402 869.517 553.391 869.517 557.023C869.517 560.988 871.685 563.723 875.806 563.684C877.173 563.664 878.072 563.586 879.263 563.254V564.582C878.248 564.855 877.095 565.031 875.806 565.031C871.041 565.031 868.111 561.984 868.111 557.023C868.091 552.414 871.334 549.035 875.884 549.035C880.552 549.035 883.697 552.219 883.677 556.418C883.677 559.445 882.115 561.223 880.142 561.223C878.912 561.223 877.984 560.529 877.916 559.621H877.779C877.545 560.051 876.959 561.145 875.435 561.145ZM875.689 559.719C877.076 559.719 877.779 558.625 877.798 557.004C877.779 555.422 877.095 554.348 875.689 554.348C874.322 554.348 873.58 555.52 873.58 557.004C873.58 558.527 874.341 559.719 875.689 559.719ZM888.12 556.633V563H886.441V552.395H888.062V554.055H888.198C888.706 552.98 889.683 552.258 891.304 552.258C893.452 552.258 894.878 553.566 894.878 556.262V563H893.198V556.379C893.198 554.738 892.3 553.762 890.796 553.762C889.253 553.762 888.12 554.797 888.12 556.633ZM897.466 559.992C897.466 557.551 899.614 557.004 901.45 556.867C902.124 556.818 903.843 556.73 904.321 556.711V555.852C904.321 554.504 903.52 553.723 901.919 553.723C900.571 553.723 899.77 554.348 899.536 555.148H897.778C897.993 553.449 899.653 552.258 901.997 552.258C903.384 552.258 905.981 552.668 905.981 556.008V563H904.321V561.555H904.243C903.891 562.277 902.915 563.254 901.079 563.254C899.067 563.254 897.466 562.062 897.466 559.992ZM899.145 560.07C899.145 561.184 900.083 561.75 901.372 561.75C903.266 561.75 904.321 560.48 904.321 559.152V558.078L901.645 558.273C900.122 558.371 899.145 558.918 899.145 560.07ZM917.416 552.395L913.491 563H911.752L907.846 552.395H909.682L912.573 560.812H912.69L915.58 552.395H917.416ZM923.734 563.215C920.668 563.215 918.773 561.047 918.773 557.785C918.773 554.523 920.688 552.258 923.578 552.258C925.805 552.258 928.148 553.625 928.148 557.551V558.254H920.453C920.531 560.5 921.84 561.73 923.734 561.73C925.004 561.73 925.805 561.184 926.195 560.52H927.992C927.484 562.121 925.922 563.215 923.734 563.215ZM920.473 556.828H926.449C926.449 555.051 925.316 553.742 923.578 553.742C921.742 553.742 920.57 555.188 920.473 556.828ZM930.736 563V552.395H932.357V554.016H932.474C932.865 552.941 933.959 552.219 935.209 552.219C935.462 552.219 935.892 552.238 936.087 552.258V553.957C935.97 553.918 935.502 553.84 935.072 553.84C933.548 553.84 932.416 554.895 932.416 556.32V563H930.736ZM938.109 563.117C937.425 563.117 936.839 562.551 936.859 561.848C936.839 561.164 937.425 560.598 938.109 560.598C938.792 560.598 939.359 561.164 939.359 561.848C939.359 562.551 938.792 563.117 938.109 563.117ZM946.731 563.215C943.723 563.215 941.887 560.93 941.887 557.746C941.887 554.523 943.802 552.258 946.692 552.258C948.958 552.258 950.637 553.586 950.911 555.598H949.231C948.997 554.621 948.137 553.742 946.731 553.742C944.837 553.742 943.567 555.305 943.567 557.688C943.567 560.148 944.798 561.711 946.731 561.711C947.981 561.711 948.938 561.047 949.231 559.875H950.911C950.637 561.77 949.095 563.215 946.731 563.215ZM957.717 563.215C954.827 563.215 952.873 561.047 952.873 557.746C952.873 554.445 954.827 552.258 957.717 552.258C960.588 552.258 962.522 554.445 962.522 557.746C962.522 561.047 960.588 563.215 957.717 563.215ZM957.717 561.73C959.846 561.73 960.842 559.855 960.842 557.746C960.842 555.637 959.846 553.742 957.717 553.742C955.549 553.742 954.553 555.637 954.553 557.746C954.553 559.855 955.549 561.73 957.717 561.73ZM965.129 563V552.395H966.75V554.055H966.887C967.336 552.922 968.352 552.258 969.738 552.258C971.125 552.258 972.062 552.922 972.57 554.055H972.688C973.234 552.961 974.348 552.258 975.871 552.258C977.766 552.258 979.113 553.41 979.113 555.91V563H977.434V555.93C977.434 554.367 976.438 553.762 975.285 553.762C973.801 553.762 972.961 554.758 972.961 556.105V563H971.262V555.754C971.262 554.562 970.402 553.762 969.191 553.762C967.922 553.762 966.809 554.836 966.809 556.379V563H965.129Z" fill="#494D5B"/>
<path d="M832.236 514.258V512.031H845.384V514.258H840.111V529H837.533V514.258H832.236ZM851.911 529.258C848.161 529.258 845.864 526.68 845.864 522.719C845.864 518.805 848.208 516.109 851.747 516.109C854.653 516.109 857.396 517.914 857.396 522.508V523.398H848.349C848.419 525.812 849.837 527.195 851.935 527.195C853.364 527.195 854.278 526.586 854.7 525.812H857.232C856.669 527.875 854.7 529.258 851.911 529.258ZM848.372 521.523H854.935C854.935 519.578 853.692 518.172 851.771 518.172C849.767 518.172 848.466 519.719 848.372 521.523ZM859.774 525.414C859.774 522.508 862.235 521.758 864.532 521.594C865.376 521.535 867.286 521.43 867.883 521.406L867.86 520.398C867.86 518.969 866.993 518.125 865.282 518.125C863.805 518.125 862.915 518.805 862.657 519.742H860.173C860.407 517.633 862.376 516.109 865.376 516.109C867.391 516.109 870.368 516.859 870.368 520.539V529H867.93V527.266H867.837C867.344 528.227 866.173 529.281 864.063 529.281C861.649 529.281 859.774 527.898 859.774 525.414ZM862.212 525.438C862.212 526.656 863.219 527.289 864.626 527.289C866.665 527.289 867.883 525.93 867.883 524.406V523.234L864.883 523.445C863.243 523.562 862.212 524.172 862.212 525.438ZM873.871 529V516.273H876.285V518.359H876.426C876.965 516.93 878.207 516.109 879.895 516.109C881.582 516.109 882.777 516.953 883.317 518.359H883.457C884.067 516.977 885.426 516.109 887.277 516.109C889.574 516.109 891.215 517.562 891.215 520.469V529H888.707V520.703C888.707 518.992 887.629 518.266 886.317 518.266C884.699 518.266 883.785 519.367 883.785 520.891V529H881.301V520.562C881.301 519.18 880.34 518.266 878.981 518.266C877.574 518.266 876.379 519.438 876.379 521.148V529H873.871ZM903.566 512.031V529H901.058V512.031H903.566ZM912.577 529.258C908.827 529.258 906.53 526.68 906.53 522.719C906.53 518.805 908.874 516.109 912.413 516.109C915.319 516.109 918.061 517.914 918.061 522.508V523.398H909.014C909.085 525.812 910.503 527.195 912.6 527.195C914.03 527.195 914.944 526.586 915.366 525.812H917.897C917.335 527.875 915.366 529.258 912.577 529.258ZM909.038 521.523H915.6C915.6 519.578 914.358 518.172 912.436 518.172C910.432 518.172 909.132 519.719 909.038 521.523ZM920.44 525.414C920.44 522.508 922.901 521.758 925.197 521.594C926.041 521.535 927.951 521.43 928.549 521.406L928.526 520.398C928.526 518.969 927.658 518.125 925.947 518.125C924.471 518.125 923.58 518.805 923.322 519.742H920.838C921.072 517.633 923.041 516.109 926.041 516.109C928.057 516.109 931.033 516.859 931.033 520.539V529H928.596V527.266H928.502C928.01 528.227 926.838 529.281 924.729 529.281C922.315 529.281 920.44 527.898 920.44 525.414ZM922.877 525.438C922.877 526.656 923.885 527.289 925.291 527.289C927.33 527.289 928.549 525.93 928.549 524.406V523.234L925.549 523.445C923.908 523.562 922.877 524.172 922.877 525.438ZM939.295 529.258C936.224 529.258 933.974 526.773 933.974 522.672C933.974 518.523 936.248 516.109 939.318 516.109C941.685 516.109 942.553 517.539 942.998 518.336H943.115V512.031H945.623V529H943.185V527.008H942.998C942.529 527.852 941.615 529.258 939.295 529.258ZM939.857 527.125C941.99 527.125 943.185 525.297 943.185 522.625C943.185 519.977 942.013 518.242 939.857 518.242C937.631 518.242 936.529 520.117 936.529 522.625C936.529 525.18 937.678 527.125 939.857 527.125ZM954.845 529.258C951.095 529.258 948.798 526.68 948.798 522.719C948.798 518.805 951.142 516.109 954.681 516.109C957.587 516.109 960.329 517.914 960.329 522.508V523.398H951.283C951.353 525.812 952.771 527.195 954.868 527.195C956.298 527.195 957.212 526.586 957.634 525.812H960.165C959.603 527.875 957.634 529.258 954.845 529.258ZM951.306 521.523H957.868C957.868 519.578 956.626 518.172 954.704 518.172C952.7 518.172 951.4 519.719 951.306 521.523ZM963.294 529V516.273H965.708V518.289H965.848C966.317 516.93 967.583 516.086 969.083 516.086C969.387 516.086 969.88 516.109 970.137 516.133V518.523C969.927 518.477 969.341 518.383 968.825 518.383C967.091 518.383 965.802 519.578 965.802 521.242V529H963.294Z" fill="#1FA2E8"/>
<path d="M772.812 612.367V614.195H766.461V619.539H774.992V621.367H755.773V619.539H764.234V614.195H758.07V604.727H760.32V612.367H772.812ZM794.574 603.016V618.859H792.324V616.117H787.871V614.336H792.324V603.016H794.574ZM795.089 621.742V623.547H779.925V617.148H782.152V621.742H795.089ZM776.855 611.195C779.48 611.184 782.773 611.148 786.019 610.938C786.371 608.816 786.464 607.164 786.488 605.992H778.753V604.188H788.714V605.008C788.714 606.145 788.714 608.09 788.269 610.75C789.042 610.68 789.804 610.598 790.542 610.492L790.707 612.109C788.82 612.438 786.863 612.637 784.941 612.766V617.5H782.714V612.883C780.71 612.977 778.812 613 777.16 613L776.855 611.195ZM816.288 605.312V607.141H799.202V605.312H806.679V602.898H808.882V605.312H816.288ZM817.437 616.586V618.414H808.882V624.016H806.679V618.414H798.218V616.586H817.437ZM807.78 608.219C812.14 608.219 814.765 609.461 814.765 611.758C814.765 614.008 812.14 615.25 807.78 615.273C803.397 615.25 800.772 614.008 800.796 611.758C800.772 609.461 803.397 608.219 807.78 608.219ZM807.78 609.883C804.757 609.883 803.093 610.539 803.093 611.758C803.093 612.93 804.757 613.586 807.78 613.586C810.78 613.586 812.444 612.93 812.468 611.758C812.444 610.539 810.78 609.883 807.78 609.883ZM758.027 649.633V656H756.348V641.859H758.027V647.055H758.164C758.652 645.961 759.609 645.258 761.289 645.258C763.457 645.258 764.902 646.547 764.902 649.262V656H763.223V649.379C763.223 647.719 762.305 646.762 760.781 646.762C759.199 646.762 758.027 647.797 758.027 649.633ZM772.451 656.215C769.384 656.215 767.49 654.047 767.49 650.785C767.49 647.523 769.404 645.258 772.295 645.258C774.521 645.258 776.865 646.625 776.865 650.551V651.254H769.17C769.248 653.5 770.556 654.73 772.451 654.73C773.72 654.73 774.521 654.184 774.912 653.52H776.709C776.201 655.121 774.638 656.215 772.451 656.215ZM769.189 649.828H775.166C775.166 648.051 774.033 646.742 772.295 646.742C770.459 646.742 769.287 648.188 769.189 649.828ZM781.132 641.859V656H779.452V641.859H781.132ZM785.888 641.859V656H784.208V641.859H785.888ZM793.299 656.215C790.409 656.215 788.455 654.047 788.455 650.746C788.455 647.445 790.409 645.258 793.299 645.258C796.17 645.258 798.104 647.445 798.104 650.746C798.104 654.047 796.17 656.215 793.299 656.215ZM793.299 654.73C795.428 654.73 796.424 652.855 796.424 650.746C796.424 648.637 795.428 646.742 793.299 646.742C791.131 646.742 790.135 648.637 790.135 650.746C790.135 652.855 791.131 654.73 793.299 654.73ZM807.703 654.145C805.75 654.145 804.324 652.562 804.324 650.023C804.324 647.504 805.77 645.922 807.723 645.922C809.129 645.922 809.715 646.82 809.949 647.27H810.047V646.078H811.531V651.781C811.551 652.543 811.883 652.914 812.508 652.914C813.719 652.914 814.52 651.508 814.539 649.477C814.559 645.785 811.883 643.383 808.152 643.383C804.285 643.402 801.785 646.391 801.785 650.023C801.785 653.988 803.953 656.723 808.074 656.684C809.441 656.664 810.34 656.586 811.531 656.254V657.582C810.516 657.855 809.363 658.031 808.074 658.031C803.309 658.031 800.379 654.984 800.379 650.023C800.359 645.414 803.602 642.035 808.152 642.035C812.82 642.035 815.965 645.219 815.945 649.418C815.945 652.445 814.383 654.223 812.41 654.223C811.18 654.223 810.252 653.529 810.184 652.621H810.047C809.812 653.051 809.227 654.145 807.703 654.145ZM807.957 652.719C809.344 652.719 810.047 651.625 810.066 650.004C810.047 648.422 809.363 647.348 807.957 647.348C806.59 647.348 805.848 648.52 805.848 650.004C805.848 651.527 806.609 652.719 807.957 652.719ZM824.607 648.148C824.373 647.27 823.709 646.684 822.459 646.684C821.15 646.684 820.213 647.387 820.213 648.285C820.213 648.988 820.779 649.477 822.029 649.77L823.611 650.16C825.505 650.609 826.443 651.547 826.443 653.031C826.443 654.867 824.939 656.215 822.283 656.215C819.9 656.215 818.474 655.16 818.201 653.227H819.959C820.154 654.262 820.916 654.75 822.244 654.75C823.748 654.75 824.705 654.125 824.705 653.129C824.705 652.387 824.177 651.879 822.966 651.605L821.365 651.234C819.509 650.805 818.533 649.789 818.533 648.383C818.533 646.566 820.115 645.258 822.459 645.258C824.646 645.258 826.033 646.43 826.248 648.148H824.607ZM833.659 645.395V646.801H831.433V652.953C831.433 654.32 832.097 654.535 832.82 654.535C833.132 654.535 833.562 654.516 833.816 654.496V656.059C833.562 656.098 833.132 656.137 832.644 656.137C831.238 656.137 829.734 655.258 829.734 653.383V646.801H828.132V645.395H829.734V642.855H831.433V645.395H833.659ZM836.227 656V645.395H837.907V656H836.227ZM837.067 643.637C836.423 643.637 835.895 643.148 835.895 642.523C835.895 641.898 836.423 641.41 837.067 641.41C837.712 641.41 838.259 641.898 838.259 642.523C838.259 643.148 837.712 643.637 837.067 643.637ZM842.662 641.859V656H840.983V641.859H842.662ZM850.191 656.215C847.125 656.215 845.23 654.047 845.23 650.785C845.23 647.523 847.145 645.258 850.035 645.258C852.262 645.258 854.605 646.625 854.605 650.551V651.254H846.91C846.988 653.5 848.297 654.73 850.191 654.73C851.461 654.73 852.262 654.184 852.652 653.52H854.449C853.941 655.121 852.379 656.215 850.191 656.215ZM846.93 649.828H852.906C852.906 648.051 851.773 646.742 850.035 646.742C848.199 646.742 847.027 648.188 846.93 649.828ZM858.384 656.117C857.701 656.117 857.115 655.551 857.134 654.848C857.115 654.164 857.701 653.598 858.384 653.598C859.068 653.598 859.634 654.164 859.634 654.848C859.634 655.551 859.068 656.117 858.384 656.117ZM862.671 656V645.395H864.351V656H862.671ZM863.511 643.637C862.866 643.637 862.339 643.148 862.339 642.523C862.339 641.898 862.866 641.41 863.511 641.41C864.155 641.41 864.702 641.898 864.702 642.523C864.702 643.148 864.155 643.637 863.511 643.637ZM867.427 656V645.395H869.048V647.055H869.184C869.634 645.922 870.649 645.258 872.036 645.258C873.423 645.258 874.36 645.922 874.868 647.055H874.985C875.532 645.961 876.645 645.258 878.169 645.258C880.063 645.258 881.411 646.41 881.411 648.91V656H879.731V648.93C879.731 647.367 878.735 646.762 877.583 646.762C876.098 646.762 875.259 647.758 875.259 649.105V656H873.559V648.754C873.559 647.562 872.7 646.762 871.489 646.762C870.22 646.762 869.106 647.836 869.106 649.379V656H867.427Z" fill="#494D5B"/>
<path d="M1141.1 381.531V409.812H1137.6V381.531H1141.1ZM1132.98 384.094V386.938H1122.85V400.062C1128.06 400.047 1131.32 399.891 1135.07 399.219L1135.42 402.094C1131.39 402.844 1127.73 403 1121.76 403H1119.35V384.094H1132.98ZM1156.03 389.562C1156.03 393.938 1158.62 398.906 1163.09 400.969L1161.15 403.719C1157.96 402.219 1155.6 399.188 1154.34 395.656C1153.06 399.531 1150.59 402.844 1147.34 404.406L1145.31 401.688C1149.81 399.562 1152.53 394.25 1152.56 389.562V387.188H1146.4V384.312H1161.93V387.188H1156.03V389.562ZM1168.03 381.531V392.531H1172.37V395.438H1168.03V409.781H1164.56V381.531H1168.03ZM1197.73 381.562V401.969H1194.23V381.562H1197.73ZM1198.51 406.406V409.219H1179.04V399.906H1182.54V406.406H1198.51ZM1182.32 383.406C1186.6 383.406 1189.92 386.375 1189.92 390.469C1189.92 394.656 1186.6 397.562 1182.32 397.562C1178.01 397.562 1174.7 394.656 1174.7 390.469C1174.7 386.375 1178.01 383.406 1182.32 383.406ZM1182.32 386.438C1179.92 386.438 1178.07 388.031 1178.1 390.469C1178.07 392.969 1179.92 394.531 1182.32 394.531C1184.67 394.531 1186.51 392.969 1186.51 390.469C1186.51 388.031 1184.67 386.438 1182.32 386.438ZM1217.07 381.188V410.188H1213.35V381.188H1217.07ZM1239.29 407H1231.6V384.375H1239.41C1246.16 384.375 1250.26 388.625 1250.26 395.656C1250.26 402.719 1246.16 407 1239.29 407ZM1235.66 403.469H1239.07C1243.79 403.469 1246.19 400.875 1246.19 395.656C1246.19 390.469 1243.79 387.906 1239.19 387.906H1235.66V403.469ZM1261.83 407.344C1256.71 407.344 1253.58 403.938 1253.58 398.625C1253.58 393.375 1256.77 389.812 1261.62 389.812C1265.77 389.812 1269.37 392.406 1269.37 398.375V399.625H1257.52C1257.57 402.516 1259.27 404.219 1261.87 404.219C1263.62 404.219 1264.8 403.469 1265.3 402.469H1269.21C1268.49 405.406 1265.77 407.344 1261.83 407.344ZM1257.55 396.906H1265.55C1265.52 394.594 1263.99 392.906 1261.68 392.906C1259.27 392.906 1257.68 394.734 1257.55 396.906ZM1282.72 394.875C1282.47 393.594 1281.41 392.781 1279.72 392.781C1278.01 392.781 1276.76 393.625 1276.79 394.781C1276.76 395.656 1277.47 396.312 1279.19 396.719L1282.07 397.312C1285.29 398.031 1286.82 399.5 1286.85 401.938C1286.82 405.125 1284.04 407.344 1279.6 407.344C1275.29 407.344 1272.72 405.406 1272.32 402.156H1276.38C1276.63 403.594 1277.76 404.312 1279.6 404.312C1281.51 404.312 1282.79 403.531 1282.79 402.281C1282.79 401.312 1282.01 400.688 1280.32 400.312L1277.6 399.719C1274.44 399.094 1272.82 397.438 1272.82 395C1272.82 391.875 1275.51 389.812 1279.66 389.812C1283.72 389.812 1286.22 391.781 1286.51 394.875H1282.72ZM1290.52 407V390.031H1294.52V407H1290.52ZM1292.55 387.625C1291.3 387.625 1290.24 386.656 1290.24 385.438C1290.24 384.25 1291.3 383.281 1292.55 383.281C1293.83 383.281 1294.86 384.25 1294.86 385.438C1294.86 386.656 1293.83 387.625 1292.55 387.625ZM1306.38 413.719C1301.88 413.719 1299.04 411.719 1298.75 408.531H1302.72C1303 410 1304.41 410.719 1306.44 410.719C1308.82 410.719 1310.38 409.688 1310.38 407.188V403.938H1310.19C1309.57 405.188 1308.22 406.75 1305.29 406.75C1301.38 406.75 1298.29 403.906 1298.29 398.375C1298.29 392.781 1301.38 389.812 1305.32 389.812C1308.32 389.812 1309.57 391.594 1310.19 392.812H1310.38V390.031H1314.32V407.281C1314.32 411.625 1310.97 413.719 1306.38 413.719ZM1306.38 403.625C1308.94 403.625 1310.41 401.688 1310.41 398.438C1310.41 395.219 1308.97 393.062 1306.38 393.062C1303.72 393.062 1302.35 395.344 1302.35 398.438C1302.35 401.562 1303.75 403.625 1306.38 403.625ZM1322.77 397.062V407H1318.77V390.031H1322.58V392.906H1322.8C1323.58 391 1325.3 389.812 1327.83 389.812C1331.36 389.812 1333.68 392.125 1333.64 396.188V407H1329.68V396.812C1329.68 394.531 1328.46 393.188 1326.36 393.188C1324.24 393.188 1322.77 394.594 1322.77 397.062ZM1345.63 407.344C1340.5 407.344 1337.38 403.938 1337.38 398.625C1337.38 393.375 1340.57 389.812 1345.41 389.812C1349.57 389.812 1353.16 392.406 1353.16 398.375V399.625H1341.32C1341.36 402.516 1343.07 404.219 1345.66 404.219C1347.41 404.219 1348.6 403.469 1349.1 402.469H1353C1352.28 405.406 1349.57 407.344 1345.63 407.344ZM1341.35 396.906H1349.35C1349.32 394.594 1347.78 392.906 1345.47 392.906C1343.07 392.906 1341.47 394.734 1341.35 396.906ZM1356.89 407V390.031H1360.77V392.844H1360.96C1361.55 390.906 1363.21 389.781 1365.14 389.781C1365.58 389.781 1366.21 389.812 1366.58 389.875V393.562C1366.24 393.438 1365.39 393.312 1364.74 393.312C1362.52 393.312 1360.89 394.844 1360.89 397V407H1356.89Z" fill="#494D5B"/>
<path d="M1134.85 510.016V521.898H1132.63V510.016H1134.85ZM1134.85 523.023V530.734H1121.05V523.023H1134.85ZM1123.25 524.805V528.93H1132.67V524.805H1123.25ZM1125.08 512.852C1125.06 515.688 1127.1 518.242 1130.28 519.32L1129.18 521.031C1126.74 520.223 1124.92 518.559 1123.96 516.391C1123.02 518.699 1121.15 520.539 1118.64 521.43L1117.53 519.672C1120.81 518.57 1122.81 515.781 1122.81 512.852V510.812H1125.08V512.852ZM1156.17 509.992V522.484H1153.94V517.164H1150.03V515.336H1153.94V509.992H1156.17ZM1149.14 523.07C1153.54 523.07 1156.24 524.523 1156.24 527.031C1156.24 529.539 1153.54 530.969 1149.14 530.992C1144.73 530.969 1142.01 529.539 1142.04 527.031C1142.01 524.523 1144.73 523.07 1149.14 523.07ZM1149.14 524.805C1146.07 524.805 1144.24 525.602 1144.24 527.031C1144.24 528.438 1146.07 529.258 1149.14 529.234C1152.21 529.258 1154.04 528.438 1154.04 527.031C1154.04 525.602 1152.21 524.805 1149.14 524.805ZM1146.19 513.695C1146.19 516.367 1148.08 518.945 1151.25 520.023L1150.1 521.781C1147.74 520.961 1146.01 519.285 1145.11 517.211C1144.18 519.566 1142.34 521.453 1139.83 522.367L1138.66 520.586C1141.92 519.461 1143.91 516.625 1143.91 513.719V513.25H1139.37V511.445H1150.69V513.25H1146.19V513.695ZM1163.17 511.492V514.844H1168.77V511.492H1170.97V521.945H1160.99V511.492H1163.17ZM1163.17 520.164H1168.77V516.578H1163.17V520.164ZM1177.3 510.016V525.484H1175.07V510.016H1177.3ZM1177.81 528.742V530.547H1163.45V523.914H1165.7V528.742H1177.81ZM1123.91 555.148C1123.68 554.27 1123.01 553.684 1121.76 553.684C1120.46 553.684 1119.52 554.387 1119.52 555.285C1119.52 555.988 1120.08 556.477 1121.33 556.77L1122.92 557.16C1124.81 557.609 1125.75 558.547 1125.75 560.031C1125.75 561.867 1124.24 563.215 1121.59 563.215C1119.21 563.215 1117.78 562.16 1117.51 560.227H1119.26C1119.46 561.262 1120.22 561.75 1121.55 561.75C1123.05 561.75 1124.01 561.125 1124.01 560.129C1124.01 559.387 1123.48 558.879 1122.27 558.605L1120.67 558.234C1118.81 557.805 1117.84 556.789 1117.84 555.383C1117.84 553.566 1119.42 552.258 1121.76 552.258C1123.95 552.258 1125.34 553.43 1125.55 555.148H1123.91ZM1128.34 563V552.395H1130.02V563H1128.34ZM1129.18 550.637C1128.53 550.637 1128 550.148 1128 549.523C1128 548.898 1128.53 548.41 1129.18 548.41C1129.82 548.41 1130.37 548.898 1130.37 549.523C1130.37 550.148 1129.82 550.637 1129.18 550.637ZM1133.09 563V552.395H1134.71V554.055H1134.85C1135.3 552.922 1136.31 552.258 1137.7 552.258C1139.09 552.258 1140.03 552.922 1140.53 554.055H1140.65C1141.2 552.961 1142.31 552.258 1143.83 552.258C1145.73 552.258 1147.08 553.41 1147.08 555.91V563H1145.4V555.93C1145.4 554.367 1144.4 553.762 1143.25 553.762C1141.76 553.762 1140.92 554.758 1140.92 556.105V563H1139.22V555.754C1139.22 554.562 1138.36 553.762 1137.15 553.762C1135.88 553.762 1134.77 554.836 1134.77 556.379V563H1133.09ZM1150.17 552.395H1151.85V563.762C1151.85 565.754 1150.84 566.984 1148.76 566.984H1148.41V565.422H1148.75C1149.72 565.422 1150.17 564.816 1150.17 563.762V552.395ZM1150.99 550.637C1150.35 550.637 1149.82 550.148 1149.82 549.523C1149.82 548.898 1150.35 548.41 1150.99 548.41C1151.64 548.41 1152.18 548.898 1152.18 549.523C1152.18 550.148 1151.64 550.637 1150.99 550.637ZM1155.14 563V548.859H1156.82V554.074H1156.96C1157.33 553.508 1157.95 552.258 1160.02 552.258C1162.68 552.258 1164.56 554.367 1164.56 557.727C1164.56 561.086 1162.68 563.215 1160.04 563.215C1158.01 563.215 1157.33 561.965 1156.96 561.379H1156.76V563H1155.14ZM1156.78 557.688C1156.78 560.07 1157.86 561.711 1159.79 561.711C1161.8 561.711 1162.86 559.953 1162.86 557.688C1162.86 555.48 1161.84 553.762 1159.79 553.762C1157.84 553.762 1156.78 555.344 1156.78 557.688ZM1171.75 563.195C1168.61 563.195 1166.81 560.559 1166.81 555.93C1166.81 551.34 1168.65 548.664 1171.75 548.664C1174.86 548.664 1176.69 551.34 1176.69 555.93C1176.69 560.559 1174.88 563.195 1171.75 563.195ZM1171.75 561.633C1173.78 561.633 1174.98 559.582 1174.98 555.93C1174.98 552.277 1173.78 550.188 1171.75 550.188C1169.72 550.188 1168.51 552.277 1168.51 555.93C1168.51 559.582 1169.7 561.633 1171.75 561.633ZM1184.05 563.195C1181.49 563.195 1179.55 561.613 1179.46 559.445H1181.16C1181.29 560.715 1182.52 561.652 1184.05 561.652C1185.88 561.652 1187.21 560.305 1187.21 558.527C1187.21 556.691 1185.82 555.344 1183.93 555.324C1182.74 555.305 1181.82 555.676 1181.29 556.594H1179.59L1180.59 548.859H1188.25V550.422H1182.05L1181.53 554.562H1181.66C1182.29 554.074 1183.25 553.742 1184.24 553.742C1186.94 553.742 1188.93 555.734 1188.93 558.488C1188.93 561.223 1186.86 563.195 1184.05 563.195ZM1198.78 561.145C1196.83 561.145 1195.4 559.562 1195.4 557.023C1195.4 554.504 1196.85 552.922 1198.8 552.922C1200.21 552.922 1200.79 553.82 1201.03 554.27H1201.13V553.078H1202.61V558.781C1202.63 559.543 1202.96 559.914 1203.59 559.914C1204.8 559.914 1205.6 558.508 1205.62 556.477C1205.64 552.785 1202.96 550.383 1199.23 550.383C1195.36 550.402 1192.86 553.391 1192.86 557.023C1192.86 560.988 1195.03 563.723 1199.15 563.684C1200.52 563.664 1201.42 563.586 1202.61 563.254V564.582C1201.6 564.855 1200.44 565.031 1199.15 565.031C1194.39 565.031 1191.46 561.984 1191.46 557.023C1191.44 552.414 1194.68 549.035 1199.23 549.035C1203.9 549.035 1207.04 552.219 1207.03 556.418C1207.03 559.445 1205.46 561.223 1203.49 561.223C1202.26 561.223 1201.33 560.529 1201.26 559.621H1201.13C1200.89 560.051 1200.31 561.145 1198.78 561.145ZM1199.04 559.719C1200.42 559.719 1201.13 558.625 1201.15 557.004C1201.13 555.422 1200.44 554.348 1199.04 554.348C1197.67 554.348 1196.93 555.52 1196.93 557.004C1196.93 558.527 1197.69 559.719 1199.04 559.719ZM1214.09 567.199C1211.53 567.199 1209.79 566.086 1209.59 564.113H1211.35C1211.59 565.188 1212.58 565.734 1214.09 565.734C1215.9 565.734 1217.01 564.953 1217.01 563.195V561.047H1216.88C1216.53 561.633 1215.84 562.844 1213.79 562.844C1211.21 562.844 1209.28 560.891 1209.28 557.551C1209.28 554.289 1211.16 552.258 1213.81 552.258C1215.86 552.258 1216.53 553.508 1216.92 554.074H1217.05V552.395H1218.69V563.293C1218.69 566.027 1216.66 567.199 1214.09 567.199ZM1214.03 561.34C1215.96 561.34 1217.05 559.953 1217.05 557.609C1217.05 555.344 1216 553.762 1214.03 553.762C1212 553.762 1210.98 555.48 1210.98 557.609C1210.98 559.816 1212.01 561.34 1214.03 561.34ZM1221.77 563V552.395H1223.39V554.055H1223.53C1223.98 552.922 1224.99 552.258 1226.38 552.258C1227.77 552.258 1228.7 552.922 1229.21 554.055H1229.33C1229.88 552.961 1230.99 552.258 1232.51 552.258C1234.41 552.258 1235.75 553.41 1235.75 555.91V563H1234.08V555.93C1234.08 554.367 1233.08 553.762 1231.93 553.762C1230.44 553.762 1229.6 554.758 1229.6 556.105V563H1227.9V555.754C1227.9 554.562 1227.04 553.762 1225.83 553.762C1224.56 553.762 1223.45 554.836 1223.45 556.379V563H1221.77ZM1238.34 559.992C1238.34 557.551 1240.49 557.004 1242.33 556.867C1243 556.818 1244.72 556.73 1245.2 556.711V555.852C1245.2 554.504 1244.4 553.723 1242.8 553.723C1241.45 553.723 1240.65 554.348 1240.41 555.148H1238.65C1238.87 553.449 1240.53 552.258 1242.87 552.258C1244.26 552.258 1246.86 552.668 1246.86 556.008V563H1245.2V561.555H1245.12C1244.77 562.277 1243.79 563.254 1241.96 563.254C1239.94 563.254 1238.34 562.062 1238.34 559.992ZM1240.02 560.07C1240.02 561.184 1240.96 561.75 1242.25 561.75C1244.14 561.75 1245.2 560.48 1245.2 559.152V558.078L1242.52 558.273C1241 558.371 1240.02 558.918 1240.02 560.07ZM1249.95 563V552.395H1251.63V563H1249.95ZM1250.79 550.637C1250.15 550.637 1249.62 550.148 1249.62 549.523C1249.62 548.898 1250.15 548.41 1250.79 548.41C1251.44 548.41 1251.98 548.898 1251.98 549.523C1251.98 550.148 1251.44 550.637 1250.79 550.637ZM1256.39 548.859V563H1254.71V548.859H1256.39ZM1260.66 563.117C1259.97 563.117 1259.39 562.551 1259.41 561.848C1259.39 561.164 1259.97 560.598 1260.66 560.598C1261.34 560.598 1261.91 561.164 1261.91 561.848C1261.91 562.551 1261.34 563.117 1260.66 563.117ZM1269.28 563.215C1266.27 563.215 1264.43 560.93 1264.43 557.746C1264.43 554.523 1266.35 552.258 1269.24 552.258C1271.5 552.258 1273.18 553.586 1273.46 555.598H1271.78C1271.54 554.621 1270.68 553.742 1269.28 553.742C1267.38 553.742 1266.11 555.305 1266.11 557.688C1266.11 560.148 1267.34 561.711 1269.28 561.711C1270.53 561.711 1271.49 561.047 1271.78 559.875H1273.46C1273.18 561.77 1271.64 563.215 1269.28 563.215ZM1280.26 563.215C1277.37 563.215 1275.42 561.047 1275.42 557.746C1275.42 554.445 1277.37 552.258 1280.26 552.258C1283.14 552.258 1285.07 554.445 1285.07 557.746C1285.07 561.047 1283.14 563.215 1280.26 563.215ZM1280.26 561.73C1282.39 561.73 1283.39 559.855 1283.39 557.746C1283.39 555.637 1282.39 553.742 1280.26 553.742C1278.1 553.742 1277.1 555.637 1277.1 557.746C1277.1 559.855 1278.1 561.73 1280.26 561.73ZM1287.68 563V552.395H1289.3V554.055H1289.43C1289.88 552.922 1290.9 552.258 1292.29 552.258C1293.67 552.258 1294.61 552.922 1295.12 554.055H1295.23C1295.78 552.961 1296.89 552.258 1298.42 552.258C1300.31 552.258 1301.66 553.41 1301.66 555.91V563H1299.98V555.93C1299.98 554.367 1298.98 553.762 1297.83 553.762C1296.35 553.762 1295.51 554.758 1295.51 556.105V563H1293.81V555.754C1293.81 554.562 1292.95 553.762 1291.74 553.762C1290.47 553.762 1289.36 554.836 1289.36 556.379V563H1287.68Z" fill="#494D5B"/>
<path d="M1127 604.258C1131.5 604.281 1134.76 606.484 1134.76 609.836C1134.76 612.988 1132.03 615.062 1128.1 615.391V619.516H1136.66V621.367H1117.44V619.516H1125.9V615.391C1122 615.062 1119.27 612.988 1119.27 609.836C1119.27 606.484 1122.53 604.281 1127 604.258ZM1127 606.086C1123.77 606.062 1121.42 607.562 1121.42 609.836C1121.42 612.203 1123.77 613.656 1127 613.68C1130.26 613.656 1132.6 612.203 1132.6 609.836C1132.6 607.562 1130.26 606.062 1127 606.086ZM1156.17 602.992V615.484H1153.94V610.164H1150.03V608.336H1153.94V602.992H1156.17ZM1149.14 616.07C1153.54 616.07 1156.24 617.523 1156.24 620.031C1156.24 622.539 1153.54 623.969 1149.14 623.992C1144.73 623.969 1142.01 622.539 1142.04 620.031C1142.01 617.523 1144.73 616.07 1149.14 616.07ZM1149.14 617.805C1146.07 617.805 1144.24 618.602 1144.24 620.031C1144.24 621.438 1146.07 622.258 1149.14 622.234C1152.21 622.258 1154.04 621.438 1154.04 620.031C1154.04 618.602 1152.21 617.805 1149.14 617.805ZM1146.19 606.695C1146.19 609.367 1148.08 611.945 1151.25 613.023L1150.1 614.781C1147.74 613.961 1146.01 612.285 1145.11 610.211C1144.18 612.566 1142.34 614.453 1139.83 615.367L1138.66 613.586C1141.92 612.461 1143.91 609.625 1143.91 606.719V606.25H1139.37V604.445H1150.69V606.25H1146.19V606.695ZM1179.03 613.961V615.742H1159.88V613.961H1179.03ZM1176.88 621.742V623.547H1162.3V617.453H1164.55V621.742H1176.88ZM1169.45 603.695C1173.99 603.672 1176.95 605.266 1176.95 607.891C1176.95 610.539 1173.99 612.133 1169.45 612.156C1164.88 612.133 1161.95 610.539 1161.95 607.891C1161.95 605.266 1164.88 603.672 1169.45 603.695ZM1169.45 605.477C1166.24 605.477 1164.22 606.391 1164.24 607.891C1164.22 609.438 1166.24 610.328 1169.45 610.328C1172.66 610.328 1174.65 609.438 1174.65 607.891C1174.65 606.391 1172.66 605.477 1169.45 605.477ZM1118.01 656V641.859H1119.69V650.082H1119.89L1124.48 645.395H1126.55L1122.08 649.926L1126.88 656H1124.75L1120.83 651L1119.69 652.035V656H1118.01ZM1128.75 656V645.395H1130.43V656H1128.75ZM1129.59 643.637C1128.94 643.637 1128.41 643.148 1128.41 642.523C1128.41 641.898 1128.94 641.41 1129.59 641.41C1130.23 641.41 1130.78 641.898 1130.78 642.523C1130.78 643.148 1130.23 643.637 1129.59 643.637ZM1133.5 656V645.395H1135.18V656H1133.5ZM1134.34 643.637C1133.7 643.637 1133.17 643.148 1133.17 642.523C1133.17 641.898 1133.7 641.41 1134.34 641.41C1134.99 641.41 1135.53 641.898 1135.53 642.523C1135.53 643.148 1134.99 643.637 1134.34 643.637ZM1138.26 656V645.395H1139.94V656H1138.26ZM1139.1 643.637C1138.45 643.637 1137.93 643.148 1137.93 642.523C1137.93 641.898 1138.45 641.41 1139.1 641.41C1139.74 641.41 1140.29 641.898 1140.29 642.523C1140.29 643.148 1139.74 643.637 1139.1 643.637ZM1143.01 656V645.395H1144.69V656H1143.01ZM1143.85 643.637C1143.21 643.637 1142.68 643.148 1142.68 642.523C1142.68 641.898 1143.21 641.41 1143.85 641.41C1144.5 641.41 1145.04 641.898 1145.04 642.523C1145.04 643.148 1144.5 643.637 1143.85 643.637ZM1147.77 656V641.859H1149.45V650.082H1149.64L1154.23 645.395H1156.3L1151.83 649.926L1156.64 656H1154.51L1150.58 651L1149.45 652.035V656H1147.77ZM1158.5 656V645.395H1160.18V656H1158.5ZM1159.34 643.637C1158.7 643.637 1158.17 643.148 1158.17 642.523C1158.17 641.898 1158.7 641.41 1159.34 641.41C1159.98 641.41 1160.53 641.898 1160.53 642.523C1160.53 643.148 1159.98 643.637 1159.34 643.637ZM1163.26 656V641.859H1164.94V650.082H1165.13L1169.72 645.395H1171.79L1167.32 649.926L1172.12 656H1169.99L1166.07 651L1164.94 652.035V656H1163.26ZM1173.99 656V645.395H1175.67V656H1173.99ZM1174.83 643.637C1174.18 643.637 1173.66 643.148 1173.66 642.523C1173.66 641.898 1174.18 641.41 1174.83 641.41C1175.47 641.41 1176.02 641.898 1176.02 642.523C1176.02 643.148 1175.47 643.637 1174.83 643.637ZM1183.65 656.195C1181.18 656.156 1178.49 654.711 1178.49 649.477C1178.49 644.477 1180.54 641.664 1183.86 641.664C1186.34 641.664 1188.08 643.188 1188.45 645.414H1186.71C1186.38 644.164 1185.44 643.227 1183.86 643.227C1181.54 643.227 1180.15 645.219 1180.15 648.617H1180.33C1181.15 647.445 1182.43 646.742 1183.96 646.742C1186.48 646.742 1188.57 648.695 1188.57 651.43C1188.57 654.086 1186.61 656.215 1183.65 656.195ZM1183.65 654.652C1185.48 654.652 1186.85 653.207 1186.87 651.449C1186.85 649.711 1185.54 648.285 1183.68 648.285C1181.83 648.285 1180.4 649.789 1180.38 651.469C1180.38 653.129 1181.75 654.652 1183.65 654.652ZM1196.31 656.195C1193.85 656.156 1191.15 654.711 1191.15 649.477C1191.15 644.477 1193.21 641.664 1196.53 641.664C1199.01 641.664 1200.74 643.188 1201.12 645.414H1199.38C1199.05 644.164 1198.11 643.227 1196.53 643.227C1194.2 643.227 1192.81 645.219 1192.81 648.617H1192.99C1193.81 647.445 1195.1 646.742 1196.62 646.742C1199.14 646.742 1201.23 648.695 1201.23 651.43C1201.23 654.086 1199.28 656.215 1196.31 656.195ZM1196.31 654.652C1198.15 654.652 1199.51 653.207 1199.53 651.449C1199.51 649.711 1198.21 648.285 1196.35 648.285C1194.49 648.285 1193.07 649.789 1193.05 651.469C1193.05 653.129 1194.42 654.652 1196.31 654.652ZM1208.98 656.195C1206.52 656.156 1203.82 654.711 1203.82 649.477C1203.82 644.477 1205.87 641.664 1209.19 641.664C1211.67 641.664 1213.41 643.188 1213.78 645.414H1212.04C1211.71 644.164 1210.77 643.227 1209.19 643.227C1206.87 643.227 1205.48 645.219 1205.48 648.617H1205.66C1206.48 647.445 1207.77 646.742 1209.29 646.742C1211.81 646.742 1213.9 648.695 1213.9 651.43C1213.9 654.086 1211.95 656.215 1208.98 656.195ZM1208.98 654.652C1210.81 654.652 1212.18 653.207 1212.2 651.449C1212.18 649.711 1210.87 648.285 1209.02 648.285C1207.16 648.285 1205.73 649.789 1205.71 651.469C1205.71 653.129 1207.08 654.652 1208.98 654.652ZM1223.73 654.145C1221.78 654.145 1220.35 652.562 1220.35 650.023C1220.35 647.504 1221.8 645.922 1223.75 645.922C1225.16 645.922 1225.74 646.82 1225.98 647.27H1226.08V646.078H1227.56V651.781C1227.58 652.543 1227.91 652.914 1228.54 652.914C1229.75 652.914 1230.55 651.508 1230.57 649.477C1230.59 645.785 1227.91 643.383 1224.18 643.383C1220.31 643.402 1217.81 646.391 1217.81 650.023C1217.81 653.988 1219.98 656.723 1224.1 656.684C1225.47 656.664 1226.37 656.586 1227.56 656.254V657.582C1226.54 657.855 1225.39 658.031 1224.1 658.031C1219.34 658.031 1216.41 654.984 1216.41 650.023C1216.39 645.414 1219.63 642.035 1224.18 642.035C1228.85 642.035 1231.99 645.219 1231.97 649.418C1231.97 652.445 1230.41 654.223 1228.44 654.223C1227.21 654.223 1226.28 653.529 1226.21 652.621H1226.08C1225.84 653.051 1225.26 654.145 1223.73 654.145ZM1223.99 652.719C1225.37 652.719 1226.08 651.625 1226.1 650.004C1226.08 648.422 1225.39 647.348 1223.99 647.348C1222.62 647.348 1221.88 648.52 1221.88 650.004C1221.88 651.527 1222.64 652.719 1223.99 652.719ZM1239.03 660.199C1236.48 660.199 1234.74 659.086 1234.54 657.113H1236.3C1236.53 658.188 1237.53 658.734 1239.03 658.734C1240.85 658.734 1241.96 657.953 1241.96 656.195V654.047H1241.83C1241.48 654.633 1240.79 655.844 1238.74 655.844C1236.16 655.844 1234.23 653.891 1234.23 650.551C1234.23 647.289 1236.1 645.258 1238.76 645.258C1240.81 645.258 1241.48 646.508 1241.87 647.074H1242V645.395H1243.64V656.293C1243.64 659.027 1241.61 660.199 1239.03 660.199ZM1238.98 654.34C1240.91 654.34 1242 652.953 1242 650.609C1242 648.344 1240.95 646.762 1238.98 646.762C1236.94 646.762 1235.93 648.48 1235.93 650.609C1235.93 652.816 1236.96 654.34 1238.98 654.34ZM1246.72 656V645.395H1248.34V647.055H1248.48C1248.93 645.922 1249.94 645.258 1251.33 645.258C1252.72 645.258 1253.65 645.922 1254.16 647.055H1254.28C1254.83 645.961 1255.94 645.258 1257.46 645.258C1259.36 645.258 1260.7 646.41 1260.7 648.91V656H1259.02V648.93C1259.02 647.367 1258.03 646.762 1256.88 646.762C1255.39 646.762 1254.55 647.758 1254.55 649.105V656H1252.85V648.754C1252.85 647.562 1251.99 646.762 1250.78 646.762C1249.51 646.762 1248.4 647.836 1248.4 649.379V656H1246.72ZM1263.29 652.992C1263.29 650.551 1265.44 650.004 1267.28 649.867C1267.95 649.818 1269.67 649.73 1270.15 649.711V648.852C1270.15 647.504 1269.35 646.723 1267.74 646.723C1266.4 646.723 1265.6 647.348 1265.36 648.148H1263.6C1263.82 646.449 1265.48 645.258 1267.82 645.258C1269.21 645.258 1271.81 645.668 1271.81 649.008V656H1270.15V654.555H1270.07C1269.72 655.277 1268.74 656.254 1266.9 656.254C1264.89 656.254 1263.29 655.062 1263.29 652.992ZM1264.97 653.07C1264.97 654.184 1265.91 654.75 1267.2 654.75C1269.09 654.75 1270.15 653.48 1270.15 652.152V651.078L1267.47 651.273C1265.95 651.371 1264.97 651.918 1264.97 653.07ZM1274.9 656V645.395H1276.58V656H1274.9ZM1275.74 643.637C1275.1 643.637 1274.57 643.148 1274.57 642.523C1274.57 641.898 1275.1 641.41 1275.74 641.41C1276.39 641.41 1276.93 641.898 1276.93 642.523C1276.93 643.148 1276.39 643.637 1275.74 643.637ZM1281.34 641.859V656H1279.66V641.859H1281.34ZM1285.6 656.117C1284.92 656.117 1284.34 655.551 1284.35 654.848C1284.34 654.164 1284.92 653.598 1285.6 653.598C1286.29 653.598 1286.85 654.164 1286.85 654.848C1286.85 655.551 1286.29 656.117 1285.6 656.117ZM1294.23 656.215C1291.22 656.215 1289.38 653.93 1289.38 650.746C1289.38 647.523 1291.3 645.258 1294.19 645.258C1296.45 645.258 1298.13 646.586 1298.41 648.598H1296.73C1296.49 647.621 1295.63 646.742 1294.23 646.742C1292.33 646.742 1291.06 648.305 1291.06 650.688C1291.06 653.148 1292.29 654.711 1294.23 654.711C1295.48 654.711 1296.43 654.047 1296.73 652.875H1298.41C1298.13 654.77 1296.59 656.215 1294.23 656.215ZM1305.21 656.215C1302.32 656.215 1300.37 654.047 1300.37 650.746C1300.37 647.445 1302.32 645.258 1305.21 645.258C1308.08 645.258 1310.02 647.445 1310.02 650.746C1310.02 654.047 1308.08 656.215 1305.21 656.215ZM1305.21 654.73C1307.34 654.73 1308.34 652.855 1308.34 650.746C1308.34 648.637 1307.34 646.742 1305.21 646.742C1303.05 646.742 1302.05 648.637 1302.05 650.746C1302.05 652.855 1303.05 654.73 1305.21 654.73ZM1312.63 656V645.395H1314.25V647.055H1314.38C1314.83 645.922 1315.85 645.258 1317.23 645.258C1318.62 645.258 1319.56 645.922 1320.07 647.055H1320.18C1320.73 645.961 1321.84 645.258 1323.37 645.258C1325.26 645.258 1326.61 646.41 1326.61 648.91V656H1324.93V648.93C1324.93 647.367 1323.93 646.762 1322.78 646.762C1321.3 646.762 1320.46 647.758 1320.46 649.105V656H1318.76V648.754C1318.76 647.562 1317.9 646.762 1316.69 646.762C1315.42 646.762 1314.3 647.836 1314.3 649.379V656H1312.63Z" fill="#494D5B"/>
<path d="M1505.08 403.469V406.375H1479.27V403.469H1505.08ZM1502.83 384.156V386.938H1498.71V395.938H1502.74V398.688H1481.49V395.938H1485.46V386.938H1481.4V384.156H1502.83ZM1488.93 395.938H1495.27V386.938H1488.93V395.938ZM1533.38 403.625V406.5H1507.57V403.625H1518.69V399.031H1510.63V389.781H1526.88V386.281H1510.57V383.469H1530.32V392.531H1514.1V396.188H1530.97V399.031H1522.13V403.625H1533.38ZM1558.33 384.281V387.469C1558.33 391.25 1558.33 395.156 1557.3 401.094L1553.77 400.781C1554.86 395.219 1554.86 391.125 1554.86 387.469V387.094H1538.58V384.281H1558.33ZM1561.61 403.062V405.906H1535.86V403.062H1561.61ZM1575.66 384.406V394.938H1568.35V400.438C1571.22 400.406 1573.96 400.297 1577.1 399.781L1577.35 402.594C1573.53 403.219 1570.44 403.344 1566.94 403.344H1565V392.125H1572.32V387.219H1564.97V384.406H1575.66ZM1588.47 381.531V409.781H1585.16V395.188H1581.97V408.344H1578.78V382.062H1581.97V392.375H1585.16V381.531H1588.47ZM1607.52 383.562V396.125H1593.89V383.562H1607.52ZM1597.33 386.312V393.312H1604.08V386.312H1597.33ZM1615.99 381.562V398.25H1612.49V381.562H1615.99ZM1606.49 398.75C1612.36 398.75 1616.08 400.781 1616.08 404.25C1616.08 407.719 1612.36 409.75 1606.49 409.75C1600.49 409.75 1596.77 407.719 1596.77 404.25C1596.77 400.781 1600.49 398.75 1606.49 398.75ZM1606.49 401.469C1602.46 401.469 1600.27 402.406 1600.27 404.25C1600.27 406.031 1602.46 407.031 1606.49 407.031C1610.36 407.031 1612.61 406.031 1612.61 404.25C1612.61 402.406 1610.36 401.469 1606.49 401.469ZM1635.33 381.188V410.188H1631.61V381.188H1635.33ZM1649.86 407V384.375H1658.36C1663.55 384.375 1666.33 387.531 1666.33 391.875C1666.33 396.219 1663.52 399.344 1658.3 399.344H1653.92V407H1649.86ZM1653.92 396H1657.73C1660.8 396 1662.17 394.281 1662.17 391.875C1662.17 389.438 1660.8 387.781 1657.73 387.781H1653.92V396ZM1670.06 407V390.031H1673.94V392.844H1674.12C1674.72 390.906 1676.37 389.781 1678.31 389.781C1678.75 389.781 1679.37 389.812 1679.75 389.875V393.562C1679.41 393.438 1678.56 393.312 1677.91 393.312C1675.69 393.312 1674.06 394.844 1674.06 397V407H1670.06ZM1689.61 407.344C1684.67 407.344 1681.48 403.844 1681.48 398.594C1681.48 393.312 1684.67 389.812 1689.61 389.812C1694.58 389.812 1697.73 393.312 1697.73 398.594C1697.73 403.844 1694.58 407.344 1689.61 407.344ZM1689.64 404.156C1692.36 404.156 1693.7 401.688 1693.7 398.562C1693.7 395.469 1692.36 392.969 1689.64 392.969C1686.86 392.969 1685.51 395.469 1685.51 398.562C1685.51 401.688 1686.86 404.156 1689.64 404.156ZM1708.87 413.719C1704.37 413.719 1701.53 411.719 1701.25 408.531H1705.22C1705.5 410 1706.9 410.719 1708.94 410.719C1711.31 410.719 1712.87 409.688 1712.87 407.188V403.938H1712.69C1712.06 405.188 1710.72 406.75 1707.78 406.75C1703.87 406.75 1700.78 403.906 1700.78 398.375C1700.78 392.781 1703.87 389.812 1707.81 389.812C1710.81 389.812 1712.06 391.594 1712.69 392.812H1712.87V390.031H1716.81V407.281C1716.81 411.625 1713.47 413.719 1708.87 413.719ZM1708.87 403.625C1711.44 403.625 1712.9 401.688 1712.9 398.438C1712.9 395.219 1711.47 393.062 1708.87 393.062C1706.22 393.062 1704.84 395.344 1704.84 398.438C1704.84 401.562 1706.25 403.625 1708.87 403.625ZM1721.26 407V390.031H1725.14V392.844H1725.33C1725.92 390.906 1727.58 389.781 1729.51 389.781C1729.95 389.781 1730.58 389.812 1730.95 389.875V393.562C1730.61 393.438 1729.76 393.312 1729.11 393.312C1726.89 393.312 1725.26 394.844 1725.26 397V407H1721.26ZM1732.87 402.219C1732.87 398.406 1736.03 397.281 1739.18 397.094C1740.36 397.016 1742.79 396.875 1743.53 396.844V395.5C1743.53 393.812 1742.43 392.844 1740.47 392.844C1738.68 392.844 1737.59 393.656 1737.28 394.875H1733.43C1733.72 392 1736.31 389.812 1740.56 389.812C1743.78 389.812 1747.5 391.125 1747.5 395.656V407H1743.68V404.656H1743.56C1742.81 406.094 1741.22 407.344 1738.56 407.344C1735.31 407.344 1732.87 405.562 1732.87 402.219ZM1736.72 402.188C1736.72 403.656 1737.9 404.406 1739.59 404.406C1742 404.406 1743.56 402.812 1743.56 400.906V399.5L1739.81 399.75C1737.9 399.906 1736.72 400.688 1736.72 402.188ZM1751.89 407V390.031H1755.7V392.906H1755.92C1756.61 390.969 1758.32 389.812 1760.57 389.812C1762.89 389.812 1764.51 390.969 1765.17 392.906H1765.36C1766.11 391.031 1767.98 389.812 1770.45 389.812C1773.54 389.812 1775.73 391.812 1775.73 395.594V407H1771.76V396.219C1771.76 394.094 1770.48 393.156 1768.86 393.156C1766.89 393.156 1765.76 394.5 1765.76 396.406V407H1761.89V396.062C1761.89 394.312 1760.7 393.156 1759.01 393.156C1757.29 393.156 1755.89 394.562 1755.89 396.688V407H1751.89ZM1780.18 407V390.031H1784V392.906H1784.21C1784.9 390.969 1786.62 389.812 1788.87 389.812C1791.18 389.812 1792.81 390.969 1793.46 392.906H1793.65C1794.4 391.031 1796.28 389.812 1798.75 389.812C1801.84 389.812 1804.03 391.812 1804.03 395.594V407H1800.06V396.219C1800.06 394.094 1798.78 393.156 1797.15 393.156C1795.18 393.156 1794.06 394.5 1794.06 396.406V407H1790.18V396.062C1790.18 394.312 1789 393.156 1787.31 393.156C1785.59 393.156 1784.18 394.562 1784.18 396.688V407H1780.18ZM1816.01 407.344C1810.89 407.344 1807.76 403.938 1807.76 398.625C1807.76 393.375 1810.95 389.812 1815.79 389.812C1819.95 389.812 1823.54 392.406 1823.54 398.375V399.625H1811.7C1811.75 402.516 1813.45 404.219 1816.04 404.219C1817.79 404.219 1818.98 403.469 1819.48 402.469H1823.39C1822.67 405.406 1819.95 407.344 1816.01 407.344ZM1811.73 396.906H1819.73C1819.7 394.594 1818.17 392.906 1815.85 392.906C1813.45 392.906 1811.85 394.734 1811.73 396.906ZM1827.28 407V390.031H1831.15V392.844H1831.34C1831.93 390.906 1833.59 389.781 1835.53 389.781C1835.96 389.781 1836.59 389.812 1836.96 389.875V393.562C1836.62 393.438 1835.78 393.312 1835.12 393.312C1832.9 393.312 1831.28 394.844 1831.28 397V407H1827.28Z" fill="#494D5B"/>
<path d="M1481.92 511.938V516.953H1485.93V511.938H1487.99V525.812H1479.81V511.938H1481.92ZM1481.92 524.008H1485.93V518.711H1481.92V524.008ZM1497.18 509.992V530.992H1495.04V520.047H1492.44V529.961H1490.33V510.391H1492.44V518.219H1495.04V509.992H1497.18ZM1517.77 511V512.781H1511.37C1511.5 515.066 1514.52 517.082 1518.42 517.562L1517.58 519.32C1513.98 518.852 1511.03 517.176 1509.89 514.82C1508.75 517.164 1505.81 518.852 1502.23 519.32L1501.38 517.562C1505.31 517.082 1508.3 515.066 1508.42 512.781H1502.09V511H1517.77ZM1519.52 520.68V522.484H1511.18V526.562H1508.98V522.484H1500.31V520.68H1519.52ZM1517.39 528.742V530.547H1502.7V524.547H1504.92V528.742H1517.39ZM1527.5 510.695C1530.67 510.719 1532.99 512.664 1533.01 515.406C1532.99 518.172 1530.67 520.094 1527.5 520.094C1524.32 520.094 1521.97 518.172 1521.97 515.406C1521.97 512.664 1524.32 510.719 1527.5 510.695ZM1527.5 512.57C1525.56 512.547 1524.13 513.695 1524.15 515.406C1524.13 517.141 1525.56 518.289 1527.5 518.289C1529.43 518.289 1530.86 517.141 1530.86 515.406C1530.86 513.695 1529.43 512.547 1527.5 512.57ZM1538.97 509.992V520.68H1536.74V509.992H1538.97ZM1538.97 521.641V526.938H1527.39V528.953H1539.67V530.734H1525.23V525.273H1536.76V523.422H1525.16V521.641H1538.97ZM1479.68 552.395H1481.36V563.762C1481.36 565.754 1480.35 566.984 1478.27 566.984H1477.92V565.422H1478.26C1479.23 565.422 1479.68 564.816 1479.68 563.762V552.395ZM1480.5 550.637C1479.86 550.637 1479.33 550.148 1479.33 549.523C1479.33 548.898 1479.86 548.41 1480.5 548.41C1481.15 548.41 1481.69 548.898 1481.69 549.523C1481.69 550.148 1481.15 550.637 1480.5 550.637ZM1484.44 563V552.395H1486.12V563H1484.44ZM1485.28 550.637C1484.63 550.637 1484.1 550.148 1484.1 549.523C1484.1 548.898 1484.63 548.41 1485.28 548.41C1485.92 548.41 1486.47 548.898 1486.47 549.523C1486.47 550.148 1485.92 550.637 1485.28 550.637ZM1493.8 563.195C1490.66 563.195 1488.86 560.559 1488.86 555.93C1488.86 551.34 1490.7 548.664 1493.8 548.664C1496.91 548.664 1498.74 551.34 1498.74 555.93C1498.74 560.559 1496.93 563.195 1493.8 563.195ZM1493.8 561.633C1495.83 561.633 1497.02 559.582 1497.02 555.93C1497.02 552.277 1495.83 550.188 1493.8 550.188C1491.77 550.188 1490.56 552.277 1490.56 555.93C1490.56 559.582 1491.75 561.633 1493.8 561.633ZM1506.12 563.195C1502.97 563.195 1501.17 560.559 1501.17 555.93C1501.17 551.34 1503.01 548.664 1506.12 548.664C1509.22 548.664 1511.06 551.34 1511.06 555.93C1511.06 560.559 1509.24 563.195 1506.12 563.195ZM1506.12 561.633C1508.15 561.633 1509.34 559.582 1509.34 555.93C1509.34 552.277 1508.15 550.188 1506.12 550.188C1504.08 550.188 1502.87 552.277 1502.87 555.93C1502.87 559.582 1504.06 561.633 1506.12 561.633ZM1518.51 548.664C1520.95 548.684 1523.64 550.148 1523.64 555.363C1523.64 560.383 1521.59 563.195 1518.27 563.195C1515.79 563.195 1514.04 561.672 1513.68 559.426H1515.42C1515.73 560.695 1516.69 561.633 1518.27 561.633C1520.58 561.633 1521.98 559.641 1522 556.203H1521.81C1520.99 557.375 1519.7 558.078 1518.2 558.078C1515.66 558.078 1513.57 556.145 1513.57 553.41C1513.57 550.773 1515.5 548.645 1518.51 548.664ZM1518.51 550.207C1516.65 550.207 1515.27 551.652 1515.29 553.391C1515.29 555.148 1516.59 556.535 1518.45 556.535C1520.29 556.535 1521.73 555.012 1521.73 553.352C1521.73 551.73 1520.38 550.207 1518.51 550.207ZM1531.19 563.195C1528.22 563.195 1526.15 561.555 1526.17 559.25C1526.15 557.414 1527.42 555.91 1529.04 555.656V555.578C1527.64 555.246 1526.72 553.957 1526.72 552.414C1526.72 550.246 1528.61 548.664 1531.19 548.664C1533.77 548.664 1535.67 550.246 1535.69 552.414C1535.67 553.957 1534.73 555.246 1533.34 555.578V555.656C1534.94 555.91 1536.21 557.414 1536.23 559.25C1536.21 561.555 1534.14 563.195 1531.19 563.195ZM1531.19 561.652C1533.22 561.652 1534.47 560.637 1534.47 559.152C1534.47 557.59 1533.09 556.438 1531.19 556.438C1529.3 556.438 1527.89 557.59 1527.93 559.152C1527.89 560.637 1529.16 561.652 1531.19 561.652ZM1531.19 554.953C1532.79 554.953 1533.97 553.977 1533.97 552.551C1533.97 551.145 1532.85 550.188 1531.19 550.188C1529.51 550.188 1528.42 551.145 1528.42 552.551C1528.42 553.977 1529.57 554.953 1531.19 554.953ZM1543.92 563.195C1541.46 563.156 1538.76 561.711 1538.76 556.477C1538.76 551.477 1540.81 548.664 1544.13 548.664C1546.61 548.664 1548.35 550.188 1548.72 552.414H1546.98C1546.65 551.164 1545.71 550.227 1544.13 550.227C1541.81 550.227 1540.42 552.219 1540.42 555.617H1540.6C1541.42 554.445 1542.71 553.742 1544.23 553.742C1546.75 553.742 1548.84 555.695 1548.84 558.43C1548.84 561.086 1546.89 563.215 1543.92 563.195ZM1543.92 561.652C1545.75 561.652 1547.12 560.207 1547.14 558.449C1547.12 556.711 1545.81 555.285 1543.96 555.285C1542.1 555.285 1540.67 556.789 1540.66 558.469C1540.66 560.129 1542.02 561.652 1543.92 561.652ZM1556.39 563.195C1553.42 563.195 1551.35 561.555 1551.37 559.25C1551.35 557.414 1552.62 555.91 1554.24 555.656V555.578C1552.83 555.246 1551.91 553.957 1551.91 552.414C1551.91 550.246 1553.81 548.664 1556.39 548.664C1558.97 548.664 1560.86 550.246 1560.88 552.414C1560.86 553.957 1559.92 555.246 1558.54 555.578V555.656C1560.14 555.91 1561.41 557.414 1561.43 559.25C1561.41 561.555 1559.34 563.195 1556.39 563.195ZM1556.39 561.652C1558.42 561.652 1559.67 560.637 1559.67 559.152C1559.67 557.59 1558.28 556.438 1556.39 556.438C1554.49 556.438 1553.09 557.59 1553.13 559.152C1553.09 560.637 1554.36 561.652 1556.39 561.652ZM1556.39 554.953C1557.99 554.953 1559.16 553.977 1559.16 552.551C1559.16 551.145 1558.05 550.188 1556.39 550.188C1554.71 550.188 1553.61 551.145 1553.61 552.551C1553.61 553.977 1554.77 554.953 1556.39 554.953ZM1571.2 561.145C1569.25 561.145 1567.82 559.562 1567.82 557.023C1567.82 554.504 1569.27 552.922 1571.22 552.922C1572.63 552.922 1573.21 553.82 1573.45 554.27H1573.55V553.078H1575.03V558.781C1575.05 559.543 1575.38 559.914 1576.01 559.914C1577.22 559.914 1578.02 558.508 1578.04 556.477C1578.06 552.785 1575.38 550.383 1571.65 550.383C1567.78 550.402 1565.28 553.391 1565.28 557.023C1565.28 560.988 1567.45 563.723 1571.57 563.684C1572.94 563.664 1573.84 563.586 1575.03 563.254V564.582C1574.01 564.855 1572.86 565.031 1571.57 565.031C1566.81 565.031 1563.88 561.984 1563.88 557.023C1563.86 552.414 1567.1 549.035 1571.65 549.035C1576.32 549.035 1579.46 552.219 1579.44 556.418C1579.44 559.445 1577.88 561.223 1575.91 561.223C1574.68 561.223 1573.75 560.529 1573.68 559.621H1573.55C1573.31 560.051 1572.72 561.145 1571.2 561.145ZM1571.46 559.719C1572.84 559.719 1573.55 558.625 1573.56 557.004C1573.55 555.422 1572.86 554.348 1571.46 554.348C1570.09 554.348 1569.35 555.52 1569.35 557.004C1569.35 558.527 1570.11 559.719 1571.46 559.719ZM1583.89 556.633V563H1582.21V552.395H1583.83V554.055H1583.96C1584.47 552.98 1585.45 552.258 1587.07 552.258C1589.22 552.258 1590.64 553.566 1590.64 556.262V563H1588.96V556.379C1588.96 554.738 1588.07 553.762 1586.56 553.762C1585.02 553.762 1583.89 554.797 1583.89 556.633ZM1593.23 559.992C1593.23 557.551 1595.38 557.004 1597.22 556.867C1597.89 556.818 1599.61 556.73 1600.09 556.711V555.852C1600.09 554.504 1599.29 553.723 1597.69 553.723C1596.34 553.723 1595.54 554.348 1595.3 555.148H1593.54C1593.76 553.449 1595.42 552.258 1597.76 552.258C1599.15 552.258 1601.75 552.668 1601.75 556.008V563H1600.09V561.555H1600.01C1599.66 562.277 1598.68 563.254 1596.85 563.254C1594.83 563.254 1593.23 562.062 1593.23 559.992ZM1594.91 560.07C1594.91 561.184 1595.85 561.75 1597.14 561.75C1599.03 561.75 1600.09 560.48 1600.09 559.152V558.078L1597.41 558.273C1595.89 558.371 1594.91 558.918 1594.91 560.07ZM1613.18 552.395L1609.26 563H1607.52L1603.61 552.395H1605.45L1608.34 560.812H1608.46L1611.35 552.395H1613.18ZM1619.5 563.215C1616.43 563.215 1614.54 561.047 1614.54 557.785C1614.54 554.523 1616.45 552.258 1619.34 552.258C1621.57 552.258 1623.91 553.625 1623.91 557.551V558.254H1616.22C1616.3 560.5 1617.61 561.73 1619.5 561.73C1620.77 561.73 1621.57 561.184 1621.96 560.52H1623.76C1623.25 562.121 1621.69 563.215 1619.5 563.215ZM1616.24 556.828H1622.22C1622.22 555.051 1621.08 553.742 1619.34 553.742C1617.51 553.742 1616.34 555.188 1616.24 556.828ZM1626.5 563V552.395H1628.12V554.016H1628.24C1628.63 552.941 1629.72 552.219 1630.97 552.219C1631.23 552.219 1631.66 552.238 1631.85 552.258V553.957C1631.74 553.918 1631.27 553.84 1630.84 553.84C1629.31 553.84 1628.18 554.895 1628.18 556.32V563H1626.5ZM1633.87 563.117C1633.19 563.117 1632.61 562.551 1632.62 561.848C1632.61 561.164 1633.19 560.598 1633.87 560.598C1634.56 560.598 1635.12 561.164 1635.12 561.848C1635.12 562.551 1634.56 563.117 1633.87 563.117ZM1642.5 563.215C1639.49 563.215 1637.65 560.93 1637.65 557.746C1637.65 554.523 1639.57 552.258 1642.46 552.258C1644.72 552.258 1646.4 553.586 1646.68 555.598H1645C1644.76 554.621 1643.9 553.742 1642.5 553.742C1640.6 553.742 1639.33 555.305 1639.33 557.688C1639.33 560.148 1640.56 561.711 1642.5 561.711C1643.75 561.711 1644.7 561.047 1645 559.875H1646.68C1646.4 561.77 1644.86 563.215 1642.5 563.215ZM1653.48 563.215C1650.59 563.215 1648.64 561.047 1648.64 557.746C1648.64 554.445 1650.59 552.258 1653.48 552.258C1656.35 552.258 1658.29 554.445 1658.29 557.746C1658.29 561.047 1656.35 563.215 1653.48 563.215ZM1653.48 561.73C1655.61 561.73 1656.61 559.855 1656.61 557.746C1656.61 555.637 1655.61 553.742 1653.48 553.742C1651.32 553.742 1650.32 555.637 1650.32 557.746C1650.32 559.855 1651.32 561.73 1653.48 561.73ZM1660.9 563V552.395H1662.52V554.055H1662.65C1663.1 552.922 1664.12 552.258 1665.5 552.258C1666.89 552.258 1667.83 552.922 1668.34 554.055H1668.45C1669 552.961 1670.11 552.258 1671.64 552.258C1673.53 552.258 1674.88 553.41 1674.88 555.91V563H1673.2V555.93C1673.2 554.367 1672.2 553.762 1671.05 553.762C1669.57 553.762 1668.73 554.758 1668.73 556.105V563H1667.03V555.754C1667.03 554.562 1666.17 553.762 1664.96 553.762C1663.69 553.762 1662.57 554.836 1662.57 556.379V563H1660.9Z" fill="#494D5B"/>
<path d="M1490.22 604.305C1490.22 609.695 1486.4 613.469 1480.19 615.109L1479.29 613.352C1484.36 612.039 1487.43 609.414 1487.83 606.086H1480.47V604.305H1490.22ZM1496.52 603.016V614.828H1494.29V603.016H1496.52ZM1496.52 615.766V623.711H1482.76V615.766H1496.52ZM1484.97 617.547V621.93H1494.34V617.547H1484.97ZM1508.06 609.18C1508.06 612.695 1510.36 616.328 1513.59 617.711L1512.38 619.445C1509.9 618.355 1507.93 616.047 1506.96 613.234C1505.99 616.234 1504.01 618.789 1501.57 619.984L1500.28 618.227C1503.45 616.75 1505.79 612.789 1505.81 609.18V606.953H1501.01V605.102H1512.84V606.953H1508.06V609.18ZM1517.72 602.992V623.992H1515.49V602.992H1517.72ZM1539.06 603.016V619.023H1536.83V614.688H1533.46V612.906H1536.83V610.305H1533.46V608.477H1536.83V603.016H1539.06ZM1533.39 605.453V607.258H1521.57V605.453H1526.5V602.992H1528.7V605.453H1533.39ZM1527.57 608.266C1530.41 608.266 1532.4 609.906 1532.43 612.297C1532.4 614.711 1530.41 616.352 1527.57 616.352C1524.74 616.352 1522.75 614.711 1522.75 612.297C1522.75 609.906 1524.74 608.266 1527.57 608.266ZM1527.57 610C1525.93 610.023 1524.83 610.914 1524.83 612.297C1524.83 613.727 1525.93 614.617 1527.57 614.617C1529.19 614.617 1530.32 613.727 1530.34 612.297C1530.32 610.914 1529.19 610.023 1527.57 610ZM1539.53 621.742V623.547H1525.35V617.617H1527.6V621.742H1539.53ZM1483.69 656.215C1481.05 656.215 1479.17 654.086 1479.17 650.727C1479.17 647.367 1481.05 645.258 1483.7 645.258C1485.76 645.258 1486.42 646.508 1486.77 647.074H1486.89V641.859H1488.59V656H1486.95V654.379H1486.77C1486.4 654.965 1485.72 656.215 1483.69 656.215ZM1483.92 654.711C1485.85 654.711 1486.95 653.07 1486.95 650.688C1486.95 648.344 1485.89 646.762 1483.92 646.762C1481.89 646.762 1480.87 648.48 1480.87 650.688C1480.87 652.953 1481.91 654.711 1483.92 654.711ZM1491.9 656V645.395H1493.52V647.055H1493.66C1494.1 645.922 1495.12 645.258 1496.51 645.258C1497.89 645.258 1498.83 645.922 1499.34 647.055H1499.46C1500 645.961 1501.12 645.258 1502.64 645.258C1504.53 645.258 1505.88 646.41 1505.88 648.91V656H1504.2V648.93C1504.2 647.367 1503.21 646.762 1502.05 646.762C1500.57 646.762 1499.73 647.758 1499.73 649.105V656H1498.03V648.754C1498.03 647.562 1497.17 646.762 1495.96 646.762C1494.69 646.762 1493.58 647.836 1493.58 649.379V656H1491.9ZM1512.98 656.215C1510.34 656.215 1508.47 654.086 1508.47 650.727C1508.47 647.367 1510.34 645.258 1513 645.258C1515.05 645.258 1515.72 646.508 1516.07 647.074H1516.18V641.859H1517.88V656H1516.24V654.379H1516.07C1515.7 654.965 1515.01 656.215 1512.98 656.215ZM1513.22 654.711C1515.15 654.711 1516.24 653.07 1516.24 650.688C1516.24 648.344 1515.19 646.762 1513.22 646.762C1511.18 646.762 1510.17 648.48 1510.17 650.688C1510.17 652.953 1511.2 654.711 1513.22 654.711ZM1522.87 649.633V656H1521.19V641.859H1522.87V647.055H1523.01C1523.5 645.961 1524.46 645.258 1526.14 645.258C1528.3 645.258 1529.75 646.547 1529.75 649.262V656H1528.07V649.379C1528.07 647.719 1527.15 646.762 1525.63 646.762C1524.05 646.762 1522.87 647.797 1522.87 649.633ZM1533.53 659.984C1533.16 659.984 1532.8 659.965 1532.59 659.945V658.441C1532.77 658.461 1533.16 658.48 1533.41 658.48C1534.09 658.48 1534.66 658.422 1535.23 656.879L1535.54 656.078L1531.61 645.395H1533.45L1536.34 653.812H1536.46L1539.35 645.395H1541.18L1536.69 657.523C1536.07 659.184 1535.03 659.984 1533.53 659.984ZM1550.14 651.645V645.395H1551.8V656H1550.14V654.203H1550.02C1549.51 655.277 1548.48 656.137 1546.88 656.137C1544.86 656.137 1543.44 654.828 1543.44 652.133V645.395H1545.12V652.016C1545.12 653.539 1546.08 654.516 1547.42 654.516C1548.61 654.516 1550.14 653.617 1550.14 651.645ZM1556.57 649.633V656H1554.89V645.395H1556.51V647.055H1556.65C1557.16 645.98 1558.14 645.258 1559.76 645.258C1561.91 645.258 1563.33 646.566 1563.33 649.262V656H1561.65V649.379C1561.65 647.738 1560.75 646.762 1559.25 646.762C1557.71 646.762 1556.57 647.797 1556.57 649.633ZM1570.63 641.859V656H1568.85V643.695H1568.77L1565.33 645.98V644.203L1568.85 641.859H1570.63ZM1574.44 653.109V651.664L1580.81 641.859H1582.98V651.566H1584.95V653.109H1582.98V656H1581.3V653.109H1574.44ZM1576.34 651.566H1581.3V644.086H1581.12L1576.34 651.449V651.566ZM1592.6 656.195C1590.14 656.156 1587.44 654.711 1587.44 649.477C1587.44 644.477 1589.49 641.664 1592.81 641.664C1595.29 641.664 1597.03 643.188 1597.4 645.414H1595.66C1595.33 644.164 1594.39 643.227 1592.81 643.227C1590.49 643.227 1589.1 645.219 1589.1 648.617H1589.28C1590.1 647.445 1591.39 646.742 1592.91 646.742C1595.43 646.742 1597.52 648.695 1597.52 651.43C1597.52 654.086 1595.57 656.215 1592.6 656.195ZM1592.6 654.652C1594.43 654.652 1595.8 653.207 1595.82 651.449C1595.8 649.711 1594.49 648.285 1592.64 648.285C1590.78 648.285 1589.36 649.789 1589.34 651.469C1589.34 653.129 1590.7 654.652 1592.6 654.652ZM1607.35 654.145C1605.4 654.145 1603.97 652.562 1603.97 650.023C1603.97 647.504 1605.42 645.922 1607.37 645.922C1608.78 645.922 1609.36 646.82 1609.6 647.27H1609.7V646.078H1611.18V651.781C1611.2 652.543 1611.53 652.914 1612.16 652.914C1613.37 652.914 1614.17 651.508 1614.19 649.477C1614.21 645.785 1611.53 643.383 1607.8 643.383C1603.94 643.402 1601.44 646.391 1601.44 650.023C1601.44 653.988 1603.6 656.723 1607.72 656.684C1609.09 656.664 1609.99 656.586 1611.18 656.254V657.582C1610.17 657.855 1609.01 658.031 1607.72 658.031C1602.96 658.031 1600.03 654.984 1600.03 650.023C1600.01 645.414 1603.25 642.035 1607.8 642.035C1612.47 642.035 1615.61 645.219 1615.6 649.418C1615.6 652.445 1614.03 654.223 1612.06 654.223C1610.83 654.223 1609.9 653.529 1609.83 652.621H1609.7C1609.46 653.051 1608.88 654.145 1607.35 654.145ZM1607.61 652.719C1608.99 652.719 1609.7 651.625 1609.72 650.004C1609.7 648.422 1609.01 647.348 1607.61 647.348C1606.24 647.348 1605.5 648.52 1605.5 650.004C1605.5 651.527 1606.26 652.719 1607.61 652.719ZM1622.66 660.199C1620.1 660.199 1618.36 659.086 1618.16 657.113H1619.92C1620.16 658.188 1621.15 658.734 1622.66 658.734C1624.47 658.734 1625.59 657.953 1625.59 656.195V654.047H1625.45C1625.1 654.633 1624.41 655.844 1622.36 655.844C1619.78 655.844 1617.85 653.891 1617.85 650.551C1617.85 647.289 1619.73 645.258 1622.38 645.258C1624.43 645.258 1625.1 646.508 1625.49 647.074H1625.62V645.395H1627.26V656.293C1627.26 659.027 1625.23 660.199 1622.66 660.199ZM1622.6 654.34C1624.53 654.34 1625.62 652.953 1625.62 650.609C1625.62 648.344 1624.57 646.762 1622.6 646.762C1620.57 646.762 1619.55 648.48 1619.55 650.609C1619.55 652.816 1620.59 654.34 1622.6 654.34ZM1630.34 656V645.395H1631.96V647.055H1632.1C1632.55 645.922 1633.56 645.258 1634.95 645.258C1636.34 645.258 1637.27 645.922 1637.78 647.055H1637.9C1638.45 645.961 1639.56 645.258 1641.08 645.258C1642.98 645.258 1644.32 646.41 1644.32 648.91V656H1642.65V648.93C1642.65 647.367 1641.65 646.762 1640.5 646.762C1639.01 646.762 1638.17 647.758 1638.17 649.105V656H1636.47V648.754C1636.47 647.562 1635.61 646.762 1634.4 646.762C1633.13 646.762 1632.02 647.836 1632.02 649.379V656H1630.34ZM1646.91 652.992C1646.91 650.551 1649.06 650.004 1650.9 649.867C1651.57 649.818 1653.29 649.73 1653.77 649.711V648.852C1653.77 647.504 1652.97 646.723 1651.37 646.723C1650.02 646.723 1649.22 647.348 1648.98 648.148H1647.22C1647.44 646.449 1649.1 645.258 1651.44 645.258C1652.83 645.258 1655.43 645.668 1655.43 649.008V656H1653.77V654.555H1653.69C1653.34 655.277 1652.36 656.254 1650.53 656.254C1648.51 656.254 1646.91 655.062 1646.91 652.992ZM1648.59 653.07C1648.59 654.184 1649.53 654.75 1650.82 654.75C1652.71 654.75 1653.77 653.48 1653.77 652.152V651.078L1651.09 651.273C1649.57 651.371 1648.59 651.918 1648.59 653.07ZM1658.52 656V645.395H1660.2V656H1658.52ZM1659.36 643.637C1658.72 643.637 1658.19 643.148 1658.19 642.523C1658.19 641.898 1658.72 641.41 1659.36 641.41C1660.01 641.41 1660.55 641.898 1660.55 642.523C1660.55 643.148 1660.01 643.637 1659.36 643.637ZM1664.96 641.859V656H1663.28V641.859H1664.96ZM1669.23 656.117C1668.54 656.117 1667.96 655.551 1667.98 654.848C1667.96 654.164 1668.54 653.598 1669.23 653.598C1669.91 653.598 1670.48 654.164 1670.48 654.848C1670.48 655.551 1669.91 656.117 1669.23 656.117ZM1677.85 656.215C1674.84 656.215 1673 653.93 1673 650.746C1673 647.523 1674.92 645.258 1677.81 645.258C1680.07 645.258 1681.75 646.586 1682.03 648.598H1680.35C1680.11 647.621 1679.25 646.742 1677.85 646.742C1675.95 646.742 1674.68 648.305 1674.68 650.688C1674.68 653.148 1675.91 654.711 1677.85 654.711C1679.1 654.711 1680.06 654.047 1680.35 652.875H1682.03C1681.75 654.77 1680.21 656.215 1677.85 656.215ZM1688.83 656.215C1685.94 656.215 1683.99 654.047 1683.99 650.746C1683.99 647.445 1685.94 645.258 1688.83 645.258C1691.71 645.258 1693.64 647.445 1693.64 650.746C1693.64 654.047 1691.71 656.215 1688.83 656.215ZM1688.83 654.73C1690.96 654.73 1691.96 652.855 1691.96 650.746C1691.96 648.637 1690.96 646.742 1688.83 646.742C1686.67 646.742 1685.67 648.637 1685.67 650.746C1685.67 652.855 1686.67 654.73 1688.83 654.73ZM1696.25 656V645.395H1697.87V647.055H1698C1698.45 645.922 1699.47 645.258 1700.86 645.258C1702.24 645.258 1703.18 645.922 1703.69 647.055H1703.8C1704.35 645.961 1705.46 645.258 1706.99 645.258C1708.88 645.258 1710.23 646.41 1710.23 648.91V656H1708.55V648.93C1708.55 647.367 1707.55 646.762 1706.4 646.762C1704.92 646.762 1704.08 647.758 1704.08 649.105V656H1702.38V648.754C1702.38 647.562 1701.52 646.762 1700.31 646.762C1699.04 646.762 1697.93 647.836 1697.93 649.379V656H1696.25Z" fill="#494D5B"/>
<path d="M81.5469 224.875V219.062H109.344V224.875H98.9375V253H91.9531V224.875H81.5469ZM122.351 253.516C114.569 253.516 109.788 248.453 109.788 240.391C109.788 232.516 114.616 227.219 122.069 227.219C128.772 227.219 134.022 231.438 134.022 240.109V242.078H116.632C116.632 245.922 118.929 248.312 122.491 248.312C124.835 248.312 126.522 247.281 127.226 245.734H133.835C132.851 250.422 128.632 253.516 122.351 253.516ZM116.632 237.719H127.46C127.46 234.625 125.304 232.422 122.21 232.422C119.022 232.422 116.749 234.789 116.632 237.719ZM138.123 245.875C138.123 240.203 142.717 238.328 147.592 238.047C149.42 237.93 152.842 237.766 153.92 237.719V235.656C153.873 233.547 152.42 232.281 149.842 232.281C147.498 232.281 145.998 233.359 145.623 235.094H139.014C139.436 230.688 143.279 227.219 150.029 227.219C155.561 227.219 160.811 229.703 160.811 235.844V253H154.248V249.484H154.061C152.795 251.828 150.404 253.469 146.607 253.469C141.732 253.469 138.123 250.938 138.123 245.875ZM144.779 245.688C144.779 247.656 146.373 248.688 148.576 248.688C151.717 248.688 153.967 246.578 153.92 243.906V242.031C152.865 242.078 149.912 242.242 148.717 242.359C146.326 242.594 144.779 243.719 144.779 245.688ZM167.067 253V227.547H173.677V232H173.958C175.036 229.047 177.614 227.219 181.036 227.219C184.552 227.219 187.13 229.047 187.974 232H188.208C189.286 229.094 192.146 227.219 195.896 227.219C200.63 227.219 203.911 230.359 203.911 235.891V253H196.974V237.25C196.974 234.344 195.286 232.938 192.989 232.938C190.364 232.938 188.864 234.766 188.864 237.438V253H182.114V237.062C182.114 234.531 180.521 232.938 178.177 232.938C175.833 232.938 174.005 234.812 174.005 237.719V253H167.067ZM214.293 253.422C212.09 253.422 210.309 251.641 210.356 249.484C210.309 247.328 212.09 245.594 214.293 245.594C216.356 245.594 218.184 247.328 218.184 249.484C218.184 251.641 216.356 253.422 214.293 253.422Z" fill="#40424D"/>
<path d="M235.338 253V219.062H248.651C256.385 219.062 260.791 223.797 260.791 230.5C260.791 237.297 256.291 241.938 248.463 241.938H242.369V253H235.338ZM242.369 236.266H247.338C251.51 236.266 253.526 233.922 253.526 230.5C253.526 227.125 251.51 224.828 247.338 224.828H242.369V236.266ZM264.624 253V227.547H271.327V231.953H271.608C272.546 228.812 274.889 227.172 277.749 227.172C278.452 227.172 279.342 227.266 279.952 227.406V233.594C279.296 233.406 277.983 233.219 276.999 233.219C273.858 233.219 271.561 235.422 271.561 238.516V253H264.624ZM293.488 253.516C285.8 253.516 281.019 248.219 281.019 240.344C281.019 232.469 285.8 227.219 293.488 227.219C301.175 227.219 306.003 232.469 306.003 240.344C306.003 248.219 301.175 253.516 293.488 253.516ZM293.534 248.125C297.097 248.125 298.925 244.797 298.925 240.344C298.925 235.844 297.097 232.516 293.534 232.516C289.925 232.516 288.05 235.844 288.05 240.344C288.05 244.797 289.925 248.125 293.534 248.125ZM309.883 227.547H316.82V254.266C316.82 260.125 313.211 262.562 307.258 262.562L305.851 262.516V257.078C306.226 257.078 306.461 257.125 306.789 257.125C309.039 257.125 309.883 256.094 309.883 254.172V227.547ZM313.304 224.219C311.195 224.219 309.508 222.625 309.508 220.703C309.508 218.734 311.195 217.141 313.304 217.141C315.367 217.141 317.054 218.734 317.054 220.703C317.054 222.625 315.367 224.219 313.304 224.219ZM333.262 253.516C325.481 253.516 320.699 248.453 320.699 240.391C320.699 232.516 325.527 227.219 332.981 227.219C339.684 227.219 344.934 231.438 344.934 240.109V242.078H327.543C327.543 245.922 329.84 248.312 333.402 248.312C335.746 248.312 337.434 247.281 338.137 245.734H344.746C343.762 250.422 339.543 253.516 333.262 253.516ZM327.543 237.719H338.371C338.371 234.625 336.215 232.422 333.121 232.422C329.934 232.422 327.66 234.789 327.543 237.719ZM360.251 253.516C352.469 253.516 347.782 248.125 347.782 240.344C347.782 232.562 352.516 227.219 360.251 227.219C366.813 227.219 371.266 231.062 371.547 236.875H365.032C364.61 234.344 362.969 232.609 360.344 232.609C357.016 232.609 354.813 235.422 354.813 240.25C354.813 245.172 356.969 247.984 360.344 247.984C362.782 247.984 364.61 246.484 365.032 243.766H371.547C371.219 249.531 367.001 253.516 360.251 253.516ZM388.786 227.547V232.75H384.005V245.172C384.005 247.188 384.989 247.703 386.396 247.75C387.099 247.75 388.318 247.703 389.161 247.609V253.094C388.411 253.234 387.193 253.328 385.458 253.328C380.443 253.328 377.021 251.078 377.068 246.156V232.75H373.552V227.547H377.068V221.453H384.005V227.547H388.786ZM393.369 253V219.062H400.4V233.125H415.119V219.062H422.197V253H415.119V238.938H400.4V253H393.369ZM431.373 253.422C429.17 253.422 427.389 251.641 427.436 249.484C427.389 247.328 429.17 245.594 431.373 245.594C433.436 245.594 435.264 247.328 435.264 249.484C435.264 251.641 433.436 253.422 431.373 253.422Z" fill="#1FA2E8"/>
</svg>
