<svg width="1165" height="1086" viewBox="0 0 1165 1086" fill="none" xmlns="http://www.w3.org/2000/svg">
<rect width="1165" height="1086" fill="#1FA2E8"/>
<path d="M965.106 639.498C956.765 639.498 950.021 632.774 950.199 624.635C950.021 616.496 956.765 609.949 965.106 609.949C972.914 609.949 979.835 616.496 979.835 624.635C979.835 632.774 972.914 639.498 965.106 639.498Z" fill="white"/>
<path d="M821.221 637.905V509.803H847.84V562.884H903.564V509.803H930.361V637.905H903.564V584.824H847.84V637.905H821.221Z" fill="white"/>
<path d="M765.941 541.828V561.468H747.84V608.356C747.84 615.965 751.567 617.911 756.891 618.088C759.553 618.088 764.167 617.911 767.361 617.557V638.258C764.522 638.789 759.908 639.143 753.342 639.143C734.353 639.143 721.398 630.65 721.575 612.072V561.468H708.266V541.828H721.575V518.827H747.84V541.828H765.941Z" fill="white"/>
<path d="M657.907 639.851C628.448 639.851 610.701 619.504 610.701 590.132C610.701 560.761 628.625 540.59 657.907 540.59C682.752 540.59 699.611 555.099 700.675 577.039H676.008C674.411 567.485 668.2 560.938 658.262 560.938C645.662 560.938 637.321 571.554 637.321 589.779C637.321 608.357 645.484 618.973 658.262 618.973C667.49 618.973 674.411 613.311 676.008 603.049H700.675C699.433 624.812 683.461 639.851 657.907 639.851Z" fill="white"/>
<path d="M555.728 639.851C526.269 639.851 508.168 620.742 508.168 590.309C508.168 560.584 526.447 540.59 554.664 540.59C580.041 540.59 599.917 556.515 599.917 589.248V596.679H534.078C534.078 611.188 542.773 620.212 556.261 620.212C565.134 620.212 571.523 616.319 574.185 610.48H599.207C595.48 628.174 579.509 639.851 555.728 639.851ZM534.078 580.224H575.072C575.072 568.546 566.909 560.23 555.196 560.23C543.128 560.23 534.521 569.166 534.078 580.224Z" fill="white"/>
<path d="M467.216 541.829H493.481V642.682C493.481 664.799 479.816 674 457.278 674L451.954 673.823V653.298C453.374 653.298 454.261 653.475 455.503 653.475C464.022 653.475 467.216 649.583 467.216 642.328V541.829ZM480.171 529.266C472.185 529.266 465.796 523.25 465.796 515.996C465.796 508.565 472.185 502.549 480.171 502.549C487.979 502.549 494.368 508.565 494.368 515.996C494.368 523.25 487.979 529.266 480.171 529.266Z" fill="white"/>
<path d="M405.151 639.851C376.047 639.851 357.945 619.858 357.945 590.132C357.945 560.407 376.047 540.59 405.151 540.59C434.255 540.59 452.534 560.407 452.534 590.132C452.534 619.858 434.255 639.851 405.151 639.851ZM405.328 619.504C418.816 619.504 425.737 606.941 425.737 590.132C425.737 573.147 418.816 560.584 405.328 560.584C391.664 560.584 384.565 573.147 384.565 590.132C384.565 606.941 391.664 619.504 405.328 619.504Z" fill="white"/>
<path d="M295.875 637.905V541.829H321.252V558.461H322.317C325.866 546.606 334.74 540.413 345.565 540.413C348.227 540.413 351.599 540.767 353.906 541.298V564.653C351.421 563.946 346.452 563.238 342.726 563.238C330.835 563.238 322.14 571.554 322.14 583.232V637.905H295.875Z" fill="white"/>
<path d="M185 637.905V509.803H235.4C264.681 509.803 281.363 527.674 281.363 552.976C281.363 578.631 264.326 596.148 234.69 596.148H211.62V637.905H185ZM211.62 574.739H230.431C246.225 574.739 253.856 565.892 253.856 552.976C253.856 540.236 246.225 531.566 230.431 531.566H211.62V574.739Z" fill="white"/>
<path d="M882.205 434V411.665H885.598V421.352H896.704V411.665H900.097V434H896.704V424.252H885.598V434H882.205ZM912.112 434.339C907.362 434.339 904.277 430.884 904.277 425.702C904.277 420.488 907.362 417.033 912.112 417.033C916.832 417.033 919.917 420.488 919.917 425.702C919.917 430.884 916.832 434.339 912.112 434.339ZM912.112 431.594C915.136 431.594 916.585 428.91 916.585 425.702C916.585 422.493 915.136 419.748 912.112 419.748C909.027 419.748 907.578 422.493 907.578 425.702C907.578 428.91 909.027 431.594 912.112 431.594ZM934.431 427.028V417.249H937.701V434H934.493V431.1H934.308C933.536 432.889 931.809 434.216 929.31 434.216C926.071 434.216 923.788 432.057 923.788 427.892V417.249H927.089V427.491C927.089 429.774 928.477 431.224 930.482 431.224C932.302 431.224 934.431 429.897 934.431 427.028ZM951.752 421.815C951.444 420.488 950.395 419.624 948.575 419.624C946.693 419.624 945.336 420.612 945.366 421.876C945.336 422.863 946.138 423.573 947.989 424.005L950.642 424.622C953.726 425.301 955.207 426.781 955.238 429.157C955.207 432.18 952.678 434.339 948.39 434.339C944.379 434.339 941.973 432.55 941.572 429.434H944.935C945.212 430.946 946.384 431.686 948.359 431.686C950.487 431.686 951.845 430.823 951.876 429.403C951.845 428.324 951.043 427.614 949.284 427.213L946.662 426.658C943.639 425.979 942.066 424.375 942.066 422.061C942.066 419.069 944.657 417.033 948.544 417.033C952.277 417.033 954.59 418.946 954.93 421.815H951.752ZM966.297 434.339C961.361 434.339 958.338 430.946 958.338 425.732C958.338 420.581 961.423 417.033 966.081 417.033C969.906 417.033 973.516 419.408 973.516 425.455V426.627H961.608C961.7 429.805 963.567 431.625 966.328 431.625C968.209 431.625 969.413 430.823 969.968 429.805H973.3C972.559 432.519 969.968 434.339 966.297 434.339ZM961.639 424.159H970.276C970.276 421.599 968.641 419.748 966.112 419.748C963.474 419.748 961.762 421.784 961.639 424.159Z" fill="white"/>
<path d="M923.841 447.162C923.841 449.101 925.413 450.672 927.351 450.672C929.29 450.672 930.861 449.101 930.861 447.162C930.861 445.224 929.29 443.652 927.351 443.652C925.413 443.652 923.841 445.224 923.841 447.162ZM927.351 473.487H928.009V447.162H927.351H926.693V473.487H927.351Z" fill="url(#paint0_linear_3561_578)"/>
<circle cx="927.351" cy="539.298" r="52.649" fill="white" fill-opacity="0.2"/>
<defs>
<linearGradient id="paint0_linear_3561_578" x1="927.351" y1="460.324" x2="928.351" y2="460.324" gradientUnits="userSpaceOnUse">
<stop stop-color="white"/>
<stop offset="1" stop-color="white"/>
</linearGradient>
</defs>
</svg>
