<svg width="1760" height="216" viewBox="0 0 1760 216" fill="none" xmlns="http://www.w3.org/2000/svg">
<rect x="1" y="1" width="1758" height="214" rx="39" fill="white"/>
<rect x="1" y="1" width="1758" height="214" rx="39" stroke="#1FA2E8" stroke-width="2"/>
<path d="M505.058 95V72.375H513.558C518.746 72.375 521.527 75.5312 521.527 79.875C521.527 84.2188 518.714 87.3438 513.496 87.3438H509.121V95H505.058ZM509.121 84H512.933C515.996 84 517.371 82.2812 517.371 79.875C517.371 77.4375 515.996 75.7812 512.933 75.7812H509.121V84ZM525.261 95V78.0312H529.136V80.8438H529.323C529.917 78.9062 531.573 77.7812 533.511 77.7812C533.948 77.7812 534.573 77.8125 534.948 77.875V81.5625C534.604 81.4375 533.761 81.3125 533.104 81.3125C530.886 81.3125 529.261 82.8438 529.261 85V95H525.261ZM544.807 95.3438C539.869 95.3438 536.682 91.8438 536.682 86.5938C536.682 81.3125 539.869 77.8125 544.807 77.8125C549.776 77.8125 552.932 81.3125 552.932 86.5938C552.932 91.8438 549.776 95.3438 544.807 95.3438ZM544.838 92.1562C547.557 92.1562 548.901 89.6875 548.901 86.5625C548.901 83.4688 547.557 80.9688 544.838 80.9688C542.057 80.9688 540.713 83.4688 540.713 86.5625C540.713 89.6875 542.057 92.1562 544.838 92.1562ZM556.666 78.0312H560.666V95.9688C560.666 99.625 558.509 101.375 554.759 101.375C554.509 101.375 554.259 101.375 553.947 101.344V98.0938C554.166 98.125 554.353 98.125 554.541 98.125C556.072 98.125 556.666 97.3438 556.666 95.9375V78.0312ZM558.666 75.625C557.416 75.625 556.353 74.6562 556.353 73.4375C556.353 72.25 557.416 71.2812 558.666 71.2812C559.947 71.2812 560.978 72.25 560.978 73.4375C560.978 74.6562 559.947 75.625 558.666 75.625ZM572.649 95.3438C567.524 95.3438 564.399 91.9375 564.399 86.625C564.399 81.375 567.587 77.8125 572.431 77.8125C576.587 77.8125 580.181 80.4062 580.181 86.375V87.625H568.337C568.384 90.5156 570.087 92.2188 572.681 92.2188C574.431 92.2188 575.618 91.4688 576.118 90.4688H580.024C579.306 93.4062 576.587 95.3438 572.649 95.3438ZM568.368 84.9062H576.368C576.337 82.5938 574.806 80.9062 572.493 80.9062C570.087 80.9062 568.493 82.7344 568.368 84.9062ZM591.321 95.3438C586.258 95.3438 583.196 91.7188 583.196 86.5938C583.196 81.4062 586.352 77.8125 591.321 77.8125C595.446 77.8125 598.321 80.2188 598.602 83.875H594.789C594.477 82.25 593.289 81 591.352 81C588.883 81 587.227 83.0938 587.227 86.5C587.227 90 588.852 92.0938 591.352 92.0938C593.133 92.0938 594.446 91.0625 594.789 89.2188H598.602C598.289 92.8125 595.571 95.3438 591.321 95.3438ZM610.711 78.0312V81.0938H607.367V89.9062C607.367 91.5312 608.179 91.875 609.179 91.875C609.648 91.875 610.429 91.8438 610.929 91.8125V95.0625C610.461 95.1562 609.679 95.2188 608.679 95.2188C605.679 95.2188 603.367 93.75 603.398 90.5625V81.0938H600.961V78.0312H603.398V73.9688H607.367V78.0312H610.711ZM622.834 95V72.375H626.897V81.9688H637.428V72.375H641.522V95H637.428V85.375H626.897V95H622.834ZM648.631 95.25C647.287 95.25 646.193 94.1562 646.193 92.8125C646.193 91.5 647.287 90.4062 648.631 90.4062C649.912 90.4062 651.037 91.5 651.037 92.8125C651.037 94.1562 649.912 95.25 648.631 95.25Z" fill="#1FA2E8"/>
<path d="M677.427 77.5312V80.2812H657.864V70.5625H661.302V77.5312H677.427ZM680.333 83.5625V86.3125H654.521V83.5625H680.333ZM677.614 94.3125V97.125H657.614V88.8125H661.083V94.3125H677.614ZM713.363 69.5312V76.6875H717.301V79.5938H713.363V86.5625H709.894V69.5312H713.363ZM713.363 87.9062V97.4375H695.113V87.9062H713.363ZM698.551 90.6562V94.625H709.926V90.6562H698.551ZM707.863 72.25V75.0312H691.113V72.25H697.769V69.3438H701.238V72.25H707.863ZM699.488 76.0625C703.582 76.0625 706.363 78.125 706.394 81.125C706.363 84.1562 703.582 86.1875 699.488 86.1875C695.363 86.1875 692.551 84.1562 692.551 81.125C692.551 78.125 695.363 76.0625 699.488 76.0625ZM699.488 78.6875C697.332 78.6875 695.926 79.5938 695.926 81.125C695.926 82.6875 697.332 83.5938 699.488 83.5938C701.644 83.5938 703.082 82.6875 703.082 81.125C703.082 79.5938 701.644 78.6875 699.488 78.6875ZM726.347 72.8438C726.316 79.5 725.566 85.9375 721.816 91.5L719.097 90.0312C722.222 85.6406 723.128 81.0625 723.347 75.6562H719.909V72.8438H726.347ZM732.659 72.8438C732.644 75.2656 732.597 77.7812 732.347 80.2812H735.191V70.2188H738.472V96.4375H735.191V83.0938H731.972C731.347 86.5938 730.206 90 728.128 93.0625L725.472 91.5625C728.863 86.7031 729.519 81.2656 729.659 75.6562H727.191V72.8438H732.659ZM743.941 69.5312V97.7812H740.597V69.5312H743.941ZM765.971 72.4688C765.939 76.0312 768.252 79.25 772.627 80.5625L770.846 83.25C767.721 82.2656 765.518 80.2812 764.314 77.7188C763.049 80.6562 760.674 82.9062 757.314 84L755.596 81.25C760.127 79.8125 762.471 76.3438 762.502 72.4688V70.5312H765.971V72.4688ZM778.189 69.5312V75.2812H782.127V78.125H778.189V84.125H774.721V69.5312H778.189ZM778.189 85.2812V92.5625H763.189V94.7812H779.064V97.5312H759.752V90.0312H774.721V87.9688H759.721V85.2812H778.189ZM791.798 71.5938C796.048 71.5938 799.111 75.4688 799.142 81.5625C799.111 87.7188 796.048 91.5625 791.798 91.5625C787.517 91.5625 784.423 87.7188 784.454 81.5625C784.423 75.4688 787.517 71.5938 791.798 71.5938ZM791.798 74.7188C789.423 74.7188 787.798 77.25 787.798 81.5625C787.798 85.9062 789.423 88.4375 791.798 88.4375C794.204 88.4375 795.798 85.9062 795.798 81.5625C795.798 77.25 794.204 74.7188 791.798 74.7188ZM806.329 69.5312V80.375H810.673V83.3125H806.329V97.7812H802.861V69.5312H806.329ZM834.626 69.5312V80.5625H838.813V83.4688H834.626V97.7188H831.157V69.5312H834.626ZM827.157 72.4688C827.157 80.7812 823.719 88.0625 814.313 92.6875L812.344 90C819.219 86.5781 822.938 81.7656 823.657 75.3438H813.876V72.4688H827.157ZM863.672 77.5312V80.2812H844.109V70.5625H847.547V77.5312H863.672ZM866.578 83.5625V86.3125H840.766V83.5625H866.578ZM863.859 94.3125V97.125H843.859V88.8125H847.328V94.3125H863.859ZM886.264 76.875C886.264 81.625 887.889 86.2812 891.796 88.375L889.733 91.125C887.186 89.7031 885.514 87.2344 884.577 84.2188C883.53 87.5469 881.717 90.3281 879.077 91.9062L876.858 89.375C881.014 86.9375 882.889 81.9062 882.889 77.0938V72.0312H886.264V76.875ZM901.702 69.5312V97.7812H898.358V83.4688H895.452V96.4062H892.171V70.0312H895.452V80.6562H898.358V69.5312H901.702ZM931.436 91.625V94.5H905.623V91.625H916.748V87.0312H908.686V77.7812H924.936V74.2812H908.623V71.4688H928.373V80.5312H912.154V84.1875H929.029V87.0312H920.186V91.625H931.436ZM959.701 83.5V86.2812H948.794V91.4688H945.263V86.2812H933.888V83.5H959.701ZM956.857 94.375V97.2188H937.044V88.8438H940.544V94.375H956.857ZM946.763 70.1562C952.857 70.1562 956.888 72.375 956.888 75.9375C956.888 79.5 952.857 81.6875 946.763 81.6875C940.669 81.6875 936.638 79.5 936.638 75.9375C936.638 72.375 940.669 70.1562 946.763 70.1562ZM946.763 72.9062C942.888 72.9062 940.357 74 940.388 75.9375C940.357 77.8125 942.888 78.9062 946.763 78.9062C950.669 78.9062 953.169 77.8125 953.169 75.9375C953.169 74 950.669 72.9062 946.763 72.9062ZM980.512 72.625C980.481 76.3125 982.762 79.5625 987.231 80.9375L985.356 83.625C982.262 82.5938 980.074 80.5938 978.856 78C977.606 81 975.231 83.3281 971.856 84.4688L970.074 81.6875C974.668 80.2188 977.012 76.5938 977.043 72.6875V70.6562H980.512V72.625ZM992.731 69.5312V75.3438H996.668V78.1875H992.731V84.5625H989.262V69.5312H992.731ZM981.918 85.7812V92.7188H976.168V94.9375C978.746 94.9062 980.402 94.8281 982.418 94.4375L982.731 97.0625C980.199 97.5625 978.168 97.5938 974.387 97.5938H972.762V90.25H978.574V88.375H972.731V85.7812H981.918ZM992.731 85.7812V97.5938H983.512V85.7812H992.731ZM986.543 88.3438V95.0312H989.731V88.3438H986.543ZM1007.9 71.5C1012.37 71.4688 1015.65 74.3125 1015.68 78.3125C1015.65 82.3438 1012.37 85.1562 1007.9 85.1562C1003.46 85.1562 1000.15 82.3438 1000.15 78.3125C1000.15 74.3125 1003.46 71.4688 1007.9 71.5ZM1007.9 74.5C1005.43 74.5 1003.59 75.9688 1003.59 78.3125C1003.59 80.6875 1005.43 82.125 1007.9 82.125C1010.4 82.125 1012.28 80.6875 1012.28 78.3125C1012.28 75.9688 1010.4 74.5 1007.9 74.5ZM1022.28 69.5312V97.8125H1018.81V69.5312H1022.28ZM998.871 89.0625C1003.96 89.0625 1011.03 89 1017.12 88.125L1017.4 90.6562C1011.06 91.875 1004.28 91.9062 999.308 91.9062L998.871 89.0625ZM1048.37 86.9688C1054.21 86.9688 1057.81 88.9375 1057.84 92.3438C1057.81 95.7812 1054.21 97.7812 1048.37 97.7812C1042.46 97.7812 1038.81 95.7812 1038.81 92.3438C1038.81 88.9375 1042.46 86.9688 1048.37 86.9688ZM1048.37 89.6875C1044.49 89.6875 1042.28 90.5938 1042.28 92.3438C1042.28 94.0938 1044.49 95.0312 1048.37 95.0312C1052.24 95.0312 1054.4 94.0938 1054.4 92.3438C1054.4 90.5938 1052.24 89.6875 1048.37 89.6875ZM1057.56 69.5312V76.2812H1061.49V79.1875H1057.56V86.2812H1054.09V69.5312H1057.56ZM1039.68 71.3125V75.125H1046.28V71.3125H1049.71V84.5H1036.24V71.3125H1039.68ZM1039.68 81.75H1046.28V77.8438H1039.68V81.75ZM1074.1 73.5625C1074.1 77.2812 1076.42 80.7812 1080.92 82.1875L1079.2 84.9375C1075.93 83.8438 1073.6 81.7031 1072.35 78.9375C1071.06 81.9062 1068.7 84.2656 1065.35 85.4062L1063.6 82.6875C1068.17 81.125 1070.51 77.4062 1070.51 73.5625V70.875H1074.1V73.5625ZM1087.1 87.7188V97.7812H1083.6V90.5H1067.82V87.7188H1087.1ZM1087.1 69.5312V86.4375H1083.6V69.5312H1087.1ZM1104.71 69.9688C1111.15 69.9688 1114.87 71.6875 1114.9 74.8125C1114.87 77.9688 1111.15 79.6562 1104.71 79.6875C1098.27 79.6562 1094.52 77.9688 1094.52 74.8125C1094.52 71.6875 1098.27 69.9688 1104.71 69.9688ZM1104.71 72.5312C1100.4 72.5312 1098.15 73.3438 1098.18 74.8125C1098.15 76.375 1100.4 77.0938 1104.71 77.0938C1109.09 77.0938 1111.31 76.375 1111.31 74.8125C1111.31 73.3438 1109.09 72.5312 1104.71 72.5312ZM1117.62 81.1875V83.9688H1091.87V81.1875H1117.62ZM1114.4 85.875V92.7812H1098.34V94.875H1115.18V97.5312H1094.93V90.3125H1110.99V88.4375H1094.9V85.875H1114.4ZM1151.87 69.5312V83.9375H1148.43V69.5312H1151.87ZM1151.93 85.25V92.5938H1136.65V94.7812H1152.77V97.5312H1133.24V90H1148.46V87.9375H1133.18V85.25H1151.93ZM1138.93 72.4062C1138.93 76 1141.3 79.375 1145.77 80.7188L1144.09 83.4062C1140.8 82.4062 1138.46 80.2969 1137.18 77.5938C1135.9 80.5312 1133.49 82.8281 1130.12 83.9062L1128.37 81.1875C1132.93 79.7188 1135.34 76.0938 1135.34 72.4062V70.2188H1138.93V72.4062ZM1180.35 69.5312V86.625H1176.88V80.7812H1172.85V77.9062H1176.88V69.5312H1180.35ZM1180.35 87.9062V97.4375H1161.57V87.9062H1180.35ZM1165.04 90.6562V94.625H1176.94V90.6562H1165.04ZM1173.32 72.1562V74.9688H1156.76V72.1562H1163.32V69.3125H1166.76V72.1562H1173.32ZM1165.04 76.0625C1168.98 76.0625 1171.73 78.1562 1171.76 81.125C1171.73 84.1875 1168.98 86.1875 1165.04 86.1875C1161.13 86.1875 1158.35 84.1875 1158.35 81.125C1158.35 78.1562 1161.13 76.0625 1165.04 76.0625ZM1165.04 78.6875C1163.01 78.6875 1161.66 79.625 1161.66 81.125C1161.66 82.6875 1163.01 83.5938 1165.04 83.5938C1167.07 83.5938 1168.41 82.6875 1168.41 81.125C1168.41 79.625 1167.07 78.6875 1165.04 78.6875ZM1207.12 69.5312V80.7812H1211.46V83.6562H1207.12V97.7812H1203.68V69.5312H1207.12ZM1201.49 73.875V76.6562H1184.83V73.875H1191.52V69.9375H1194.99V73.875H1201.49ZM1193.27 78.5C1197.33 78.5 1200.37 81.25 1200.37 85.1562C1200.37 89.0625 1197.33 91.7812 1193.27 91.7812C1189.15 91.7812 1186.12 89.0625 1186.15 85.1562C1186.12 81.25 1189.15 78.5 1193.27 78.5ZM1193.27 81.3438C1191.05 81.3438 1189.46 82.8438 1189.46 85.1562C1189.46 87.4688 1191.05 88.9375 1193.27 88.9062C1195.43 88.9375 1197.02 87.4688 1197.05 85.1562C1197.02 82.8438 1195.43 81.3438 1193.27 81.3438ZM1227.66 72.1562V76.0625H1233.54V69.5312H1236.97V97.8125H1233.54V86.5312H1227.66V90.8125H1214.35V72.1562H1227.66ZM1217.82 74.875V88.0625H1224.26V74.875H1217.82ZM1227.66 83.75H1233.54V78.875H1227.66V83.75ZM1247.08 92.7812L1244.46 101.531H1241.49L1243.11 92.7812H1247.08ZM629.694 117.531V145.781H626.351V131.281H623.319V144.469H620.069V118.281H623.319V128.469H626.351V117.531H629.694ZM617.663 121.094C617.663 128.719 615.257 135.281 607.226 139.875L605.226 137.469C611.241 133.984 613.788 129.516 614.288 123.875H606.538V121.094H617.663ZM657.272 117.562V137.969H653.772V117.562H657.272ZM658.053 142.406V145.219H638.584V135.906H642.084V142.406H658.053ZM641.866 119.406C646.147 119.406 649.459 122.375 649.459 126.469C649.459 130.656 646.147 133.562 641.866 133.562C637.553 133.562 634.241 130.656 634.241 126.469C634.241 122.375 637.553 119.406 641.866 119.406ZM641.866 122.438C639.459 122.438 637.616 124.031 637.647 126.469C637.616 128.969 639.459 130.531 641.866 130.531C644.209 130.531 646.053 128.969 646.053 126.469C646.053 124.031 644.209 122.438 641.866 122.438ZM677.818 120.469V122.469C677.818 125 677.818 128.531 677.037 133.406L673.599 133.125C674.271 128.844 674.349 125.688 674.381 123.25H663.287V120.469H677.818ZM670.693 128.531V136.875C673.568 136.766 676.521 136.562 679.224 136.219L679.412 138.812C673.568 139.75 667.099 139.875 662.131 139.844L661.787 137.062C663.459 137.047 665.318 137.031 667.256 136.969V128.531H670.693ZM684.193 117.531V129.031H688.287V131.969H684.193V145.781H680.693V117.531H684.193ZM709.223 125.562C709.223 130.188 711.942 135.062 716.504 136.969L714.598 139.719C711.254 138.281 708.817 135.312 707.536 131.719C706.223 135.594 703.754 138.844 700.442 140.406L698.442 137.688C702.911 135.625 705.692 130.375 705.692 125.562V123.188H699.473V120.312H715.411V123.188H709.223V125.562ZM722.067 117.531V145.781H718.567V117.531H722.067ZM750.519 135.562V145.781H747.051V138.312H731.269V135.562H750.519ZM750.519 117.531V134.219H747.051V130.469H740.426C739.082 131.969 737.051 132.875 734.707 132.875C730.457 132.875 727.238 130 727.238 125.938C727.238 121.938 730.457 119.062 734.707 119.094C737.035 119.078 739.066 119.953 740.394 121.438H747.051V117.531H750.519ZM734.707 122.031C732.269 122.031 730.551 123.594 730.551 125.938C730.551 128.375 732.269 129.906 734.707 129.938C737.019 129.906 738.769 128.375 738.801 125.938C738.769 123.594 737.019 122.031 734.707 122.031ZM741.894 127.656H747.051V124.281H741.926C742.035 124.812 742.113 125.359 742.113 125.938C742.113 126.531 742.035 127.109 741.894 127.656ZM778.659 117.531V145.812H775.159V117.531H778.659ZM763.441 119.594C767.691 119.594 770.784 123.469 770.816 129.562C770.784 135.719 767.691 139.562 763.441 139.562C759.159 139.562 756.066 135.719 756.066 129.562C756.066 123.469 759.159 119.594 763.441 119.594ZM763.441 122.719C761.034 122.719 759.409 125.25 759.409 129.562C759.409 133.906 761.034 136.438 763.441 136.438C765.816 136.438 767.441 133.906 767.441 129.562C767.441 125.25 765.816 122.719 763.441 122.719ZM813.971 117.531V124.688H817.908V127.594H813.971V134.562H810.502V117.531H813.971ZM813.971 135.906V145.438H795.721V135.906H813.971ZM799.158 138.656V142.625H810.533V138.656H799.158ZM808.471 120.25V123.031H791.721V120.25H798.377V117.344H801.846V120.25H808.471ZM800.096 124.062C804.189 124.062 806.971 126.125 807.002 129.125C806.971 132.156 804.189 134.188 800.096 134.188C795.971 134.188 793.158 132.156 793.158 129.125C793.158 126.125 795.971 124.062 800.096 124.062ZM800.096 126.688C797.939 126.688 796.533 127.594 796.533 129.125C796.533 130.688 797.939 131.594 800.096 131.594C802.252 131.594 803.689 130.688 803.689 129.125C803.689 127.594 802.252 126.688 800.096 126.688ZM826.954 120.844C826.923 127.5 826.173 133.938 822.423 139.5L819.704 138.031C822.829 133.641 823.736 129.062 823.954 123.656H820.517V120.844H826.954ZM833.267 120.844C833.251 123.266 833.204 125.781 832.954 128.281H835.798V118.219H839.079V144.438H835.798V131.094H832.579C831.954 134.594 830.814 138 828.736 141.062L826.079 139.562C829.47 134.703 830.126 129.266 830.267 123.656H827.798V120.844H833.267ZM844.548 117.531V145.781H841.204V117.531H844.548ZM866.859 121.594C866.828 125.438 869.078 128.938 873.516 130.344L871.641 133.062C868.562 131.984 866.406 129.938 865.203 127.25C863.953 130.328 861.594 132.75 858.172 133.938L856.328 131.125C861.016 129.594 863.359 125.812 863.359 121.75V119.062H866.859V121.594ZM880.172 117.531V134.156H876.703V125.844H871.078V123H876.703V117.531H880.172ZM870.609 134.906C876.609 134.906 880.266 136.906 880.266 140.344C880.266 143.781 876.609 145.75 870.609 145.75C864.641 145.75 860.984 143.781 861.016 140.344C860.984 136.906 864.641 134.906 870.609 134.906ZM870.609 137.594C866.672 137.594 864.453 138.562 864.453 140.344C864.453 142.062 866.672 143.031 870.609 143.031C874.547 143.031 876.797 142.062 876.797 140.344C876.797 138.562 874.547 137.594 870.609 137.594ZM894.937 122.625C894.937 126.094 897.187 129.344 901.593 130.688L899.937 133.406C896.765 132.422 894.515 130.406 893.281 127.844C892.031 130.812 889.64 133.172 886.249 134.312L884.499 131.562C889.062 130.062 891.437 126.406 891.437 122.656V122.312H885.468V119.5H900.812V122.312H894.937V122.625ZM907.093 117.531V124.312H911.031V127.156H907.093V134.375H903.624V117.531H907.093ZM897.906 135C903.749 135 907.343 136.969 907.374 140.344C907.343 143.75 903.749 145.75 897.906 145.75C891.999 145.75 888.343 143.75 888.343 140.344C888.343 136.969 891.999 135 897.906 135ZM897.906 137.719C894.031 137.719 891.812 138.625 891.812 140.344C891.812 142.094 894.031 143.031 897.906 143.031C901.781 143.031 903.937 142.094 903.937 140.344C903.937 138.625 901.781 137.719 897.906 137.719ZM935.233 117.531V128.781H939.577V131.656H935.233V145.781H931.796V117.531H935.233ZM929.608 121.875V124.656H912.952V121.875H919.639V117.938H923.108V121.875H929.608ZM921.389 126.5C925.452 126.5 928.483 129.25 928.483 133.156C928.483 137.062 925.452 139.781 921.389 139.781C917.264 139.781 914.233 137.062 914.264 133.156C914.233 129.25 917.264 126.5 921.389 126.5ZM921.389 129.344C919.171 129.344 917.577 130.844 917.577 133.156C917.577 135.469 919.171 136.938 921.389 136.906C923.546 136.938 925.139 135.469 925.171 133.156C925.139 130.844 923.546 129.344 921.389 129.344ZM964.279 125.531V128.281H944.717V118.562H948.154V125.531H964.279ZM967.186 131.562V134.312H941.373V131.562H967.186ZM964.467 142.312V145.125H944.467V136.812H947.936V142.312H964.467ZM990.653 135.188C996.778 135.219 1000.65 137.156 1000.68 140.5C1000.65 143.781 996.778 145.75 990.653 145.75C984.559 145.75 980.653 143.781 980.653 140.5C980.653 137.156 984.559 135.219 990.653 135.188ZM990.653 137.812C986.591 137.812 984.122 138.781 984.153 140.5C984.122 142.156 986.591 143.062 990.653 143.062C994.747 143.062 997.216 142.156 997.247 140.5C997.216 138.781 994.747 137.812 990.653 137.812ZM1000.5 118.875V121.219C1000.5 123.438 1000.5 125.812 999.716 128.719L996.278 128.406C996.981 125.656 997.028 123.672 997.028 121.625H980.934V118.875H1000.5ZM1003.62 130.344V133.156H977.997V130.344H987.934V125.219H991.372V130.344H1003.62ZM1032.01 131.062V133.844H1006.23V131.062H1017.42V128.375H1009.39V118.812H1028.89V121.531H1012.86V125.625H1029.04V128.375H1020.82V131.062H1032.01ZM1019.07 135.469C1025.17 135.469 1028.82 137.312 1028.86 140.625C1028.82 143.906 1025.17 145.781 1019.07 145.781C1012.92 145.781 1009.23 143.906 1009.23 140.625C1009.23 137.312 1012.92 135.469 1019.07 135.469ZM1019.07 138.125C1014.95 138.125 1012.73 139 1012.76 140.625C1012.73 142.25 1014.95 143.094 1019.07 143.094C1023.11 143.094 1025.36 142.25 1025.39 140.625C1025.36 139 1023.11 138.125 1019.07 138.125ZM1043.15 126.156C1043.15 130.531 1044.96 134.938 1048.9 137.062L1046.96 139.625C1044.34 138.234 1042.56 135.75 1041.56 132.781C1040.56 135.984 1038.78 138.719 1036.12 140.281L1034.09 137.656C1038.09 135.344 1039.87 130.625 1039.87 126.156V125.281H1035.06V122.469H1039.87V118.531H1043.15V122.469H1047.87V125.281H1043.15V126.156ZM1058.84 117.531V145.781H1055.53V117.531H1058.84ZM1053.09 118.062V144.406H1049.81V131.25H1046.12V128.375H1049.81V118.062H1053.09ZM1086.35 117.531V132.688H1082.85V117.531H1086.35ZM1071.1 134V136.906H1082.89V134H1086.35V145.438H1067.67V134H1071.1ZM1071.1 142.625H1082.89V139.625H1071.1V142.625ZM1070.95 118.781C1075.29 118.75 1078.54 121.469 1078.54 125.406C1078.54 129.25 1075.29 131.969 1070.95 131.969C1066.57 131.969 1063.32 129.25 1063.32 125.406C1063.32 121.469 1066.57 118.75 1070.95 118.781ZM1070.95 121.688C1068.48 121.688 1066.7 123.125 1066.73 125.406C1066.7 127.656 1068.48 129.094 1070.95 129.125C1073.39 129.094 1075.14 127.656 1075.14 125.406C1075.14 123.125 1073.39 121.688 1070.95 121.688ZM1114.68 117.531V145.781H1111.24V117.531H1114.68ZM1096.18 120.281V135.719C1100.15 135.656 1104.37 135.297 1108.71 134.438L1109.15 137.344C1104.18 138.375 1099.56 138.688 1095.18 138.688H1092.74V120.281H1096.18ZM1141.54 117.531V128.25H1145.88V131.094H1141.54V145.812H1138.07V117.531H1141.54ZM1133.79 120.219V123.031H1124.04V136C1128.43 136 1131.9 135.781 1135.79 135.094L1136.2 138.031C1131.82 138.781 1128.01 138.906 1122.92 138.906H1120.57V120.219H1133.79ZM1151.15 143.25C1149.81 143.25 1148.71 142.156 1148.71 140.812C1148.71 139.5 1149.81 138.406 1151.15 138.406C1152.43 138.406 1153.56 139.5 1153.56 140.812C1153.56 142.156 1152.43 143.25 1151.15 143.25Z" fill="#40424D"/>
</svg>
