<svg width="655" height="640" viewBox="0 0 655 640" fill="none" xmlns="http://www.w3.org/2000/svg">
<path d="M1099.3 398.192L393.834 -9.11033L386.519 3.56043C386.199 4.0384 385.709 4.37673 385.148 4.50688C384.588 4.63702 383.998 4.54922 383.5 4.26132C383.001 3.97341 382.63 3.50694 382.463 2.95634C382.295 2.40574 382.343 1.81226 382.597 1.29611L389.913 -11.3747L217.829 -110.727C214.184 -112.836 209.874 -113.479 205.775 -112.525C201.675 -111.572 198.094 -109.093 195.76 -105.594C200.959 -102.593 204.753 -97.6511 206.309 -91.8566C207.865 -86.062 207.055 -79.8891 204.056 -74.6959C201.058 -69.5026 196.117 -65.7143 190.321 -64.1644C184.525 -62.6145 178.348 -63.43 173.15 -66.4314L162.663 -48.2685C167.862 -45.2671 171.656 -40.3256 173.212 -34.5311C174.768 -28.7365 173.958 -22.5636 170.959 -17.3703C167.961 -12.1771 163.02 -8.38878 157.224 -6.83889C151.428 -5.28902 145.251 -6.10449 140.053 -9.10591L129.596 9.00508C134.662 12.0736 138.326 17.0031 139.801 22.7364C141.276 28.4697 140.445 34.5504 137.486 39.6747C134.528 44.799 129.677 48.5589 123.975 50.1482C118.272 51.7375 112.171 51.0296 106.981 48.1764L96.5243 66.2873C101.723 69.2888 105.518 74.2303 107.073 80.0248C108.629 85.8193 107.819 91.9923 104.82 97.1855C101.822 102.379 96.8814 106.167 91.0853 107.717C85.2891 109.267 79.1124 108.451 73.9138 105.45L63.4823 123.518C68.6809 126.519 72.4756 131.461 74.0314 137.255C75.5872 143.05 74.7768 149.223 71.7785 154.416C68.7801 159.609 63.8394 163.397 58.0433 164.947C52.2472 166.497 46.0704 165.682 40.8718 162.68L30.4154 180.791C35.4817 183.86 39.1451 188.789 40.6201 194.523C42.0951 200.256 41.2642 206.337 38.3056 211.461C35.3471 216.585 30.4966 220.345 24.7939 221.934C19.0912 223.524 12.9904 222.816 7.79984 219.963C5.90377 223.742 5.52552 228.103 6.74252 232.155C7.95954 236.206 10.6798 239.641 14.3461 241.755L186.43 341.108L194.919 326.404C195.239 325.926 195.729 325.588 196.289 325.458C196.85 325.328 197.439 325.416 197.938 325.703C198.437 325.991 198.807 326.458 198.975 327.008C199.143 327.559 199.095 328.153 198.841 328.669L190.352 343.372L895.82 750.675C897.707 751.765 899.789 752.474 901.949 752.76C904.109 753.046 906.303 752.904 908.407 752.342C910.511 751.78 912.483 750.809 914.211 749.485C915.939 748.161 917.389 746.509 918.477 744.624L1105.41 420.849C1106.5 418.962 1107.2 416.879 1107.48 414.719C1107.77 412.559 1107.62 410.364 1107.05 408.26C1106.48 406.156 1105.51 404.184 1104.18 402.457C1102.85 400.729 1101.19 399.28 1099.3 398.192ZM203.382 320.762C203.245 321.041 203.053 321.288 202.816 321.489C202.58 321.69 202.304 321.84 202.007 321.93C201.71 322.02 201.397 322.049 201.089 322.013C200.78 321.977 200.482 321.879 200.213 321.724C199.944 321.568 199.709 321.359 199.524 321.11C199.339 320.86 199.207 320.576 199.137 320.273C199.066 319.971 199.059 319.657 199.114 319.352C199.17 319.046 199.288 318.756 199.461 318.498L210.182 299.928C210.502 299.45 210.992 299.112 211.552 298.982C212.113 298.852 212.702 298.94 213.201 299.228C213.699 299.515 214.07 299.982 214.238 300.533C214.405 301.083 214.357 301.677 214.104 302.193L203.382 320.762ZM218.643 294.331C218.323 294.809 217.833 295.147 217.272 295.277C216.711 295.407 216.122 295.32 215.623 295.032C215.125 294.744 214.754 294.277 214.586 293.727C214.419 293.176 214.467 292.583 214.721 292.067L225.427 273.523C225.564 273.245 225.756 272.997 225.993 272.796C226.23 272.595 226.505 272.445 226.802 272.355C227.099 272.265 227.412 272.237 227.721 272.272C228.029 272.308 228.327 272.406 228.596 272.562C228.865 272.717 229.1 272.926 229.285 273.175C229.47 273.425 229.602 273.71 229.672 274.012C229.743 274.315 229.751 274.628 229.695 274.934C229.639 275.239 229.521 275.53 229.349 275.787L218.643 294.331ZM233.908 267.891C233.771 268.169 233.578 268.417 233.341 268.618C233.105 268.819 232.829 268.969 232.532 269.059C232.235 269.149 231.922 269.177 231.614 269.142C231.305 269.106 231.007 269.008 230.738 268.852C230.469 268.697 230.235 268.488 230.05 268.239C229.864 267.989 229.733 267.704 229.662 267.402C229.591 267.099 229.584 266.786 229.639 266.48C229.695 266.175 229.813 265.884 229.986 265.627L240.707 247.057C241.027 246.579 241.517 246.241 242.077 246.111C242.638 245.981 243.227 246.068 243.726 246.356C244.225 246.644 244.595 247.111 244.763 247.661C244.931 248.212 244.883 248.805 244.629 249.322L233.908 267.891ZM249.168 241.46C248.848 241.938 248.358 242.276 247.797 242.406C247.237 242.536 246.647 242.448 246.148 242.16C245.65 241.873 245.279 241.406 245.112 240.855C244.944 240.305 244.992 239.711 245.246 239.195L255.967 220.626C256.104 220.347 256.297 220.1 256.533 219.899C256.77 219.698 257.045 219.548 257.343 219.458C257.64 219.368 257.952 219.34 258.261 219.375C258.569 219.411 258.868 219.509 259.137 219.664C259.406 219.82 259.64 220.029 259.825 220.278C260.01 220.528 260.142 220.812 260.213 221.115C260.283 221.417 260.291 221.731 260.235 222.036C260.179 222.342 260.062 222.632 259.889 222.89L249.168 241.46ZM264.433 215.02C264.113 215.498 263.623 215.836 263.062 215.966C262.502 216.096 261.912 216.008 261.414 215.72C260.915 215.433 260.544 214.966 260.377 214.416C260.209 213.865 260.257 213.271 260.511 212.755L271.232 194.186C271.552 193.708 272.042 193.37 272.603 193.239C273.163 193.109 273.753 193.197 274.251 193.485C274.75 193.773 275.121 194.239 275.288 194.79C275.456 195.341 275.408 195.934 275.154 196.45L264.433 215.02ZM279.698 188.58C279.561 188.858 279.368 189.106 279.132 189.307C278.895 189.507 278.62 189.658 278.323 189.748C278.025 189.838 277.713 189.866 277.404 189.83C277.096 189.795 276.797 189.696 276.528 189.541C276.259 189.386 276.025 189.177 275.84 188.927C275.655 188.678 275.523 188.393 275.452 188.091C275.382 187.788 275.374 187.475 275.43 187.169C275.486 186.864 275.603 186.573 275.776 186.315L286.497 167.746C286.817 167.268 287.307 166.93 287.868 166.799C288.428 166.669 289.018 166.757 289.516 167.045C290.015 167.333 290.386 167.799 290.553 168.35C290.721 168.901 290.673 169.494 290.419 170.01L279.698 188.58ZM294.958 162.148C294.638 162.626 294.148 162.965 293.588 163.095C293.027 163.225 292.438 163.137 291.939 162.849C291.44 162.561 291.07 162.095 290.902 161.544C290.734 160.994 290.782 160.4 291.036 159.884L301.757 141.315C301.894 141.036 302.087 140.789 302.324 140.588C302.56 140.387 302.836 140.237 303.133 140.147C303.43 140.056 303.743 140.028 304.051 140.064C304.36 140.099 304.658 140.198 304.927 140.353C305.196 140.509 305.43 140.717 305.615 140.967C305.801 141.216 305.932 141.501 306.003 141.804C306.074 142.106 306.081 142.42 306.026 142.725C305.97 143.03 305.852 143.321 305.679 143.579L294.958 162.148ZM310.223 135.708C310.086 135.987 309.894 136.234 309.657 136.435C309.42 136.636 309.145 136.786 308.848 136.876C308.551 136.967 308.238 136.995 307.929 136.959C307.621 136.924 307.323 136.825 307.054 136.67C306.785 136.514 306.55 136.306 306.365 136.056C306.18 135.807 306.048 135.522 305.978 135.219C305.907 134.917 305.899 134.603 305.955 134.298C306.011 133.993 306.129 133.702 306.301 133.444L317.022 114.875C317.342 114.397 317.832 114.058 318.393 113.928C318.954 113.798 319.543 113.886 320.042 114.174C320.54 114.462 320.911 114.928 321.079 115.479C321.246 116.029 321.198 116.623 320.944 117.139L310.223 135.708ZM325.483 109.277C325.163 109.755 324.673 110.093 324.113 110.224C323.552 110.354 322.963 110.266 322.464 109.978C321.965 109.69 321.595 109.224 321.427 108.673C321.26 108.122 321.308 107.529 321.562 107.013L332.288 88.4347C332.425 88.1562 332.617 87.9088 332.854 87.7079C333.091 87.5069 333.366 87.3568 333.663 87.2666C333.96 87.1765 334.273 87.1484 334.581 87.1839C334.89 87.2194 335.188 87.3179 335.457 87.4733C335.726 87.6286 335.961 87.8375 336.146 88.087C336.331 88.3365 336.463 88.6213 336.533 88.9237C336.604 89.2261 336.611 89.5398 336.556 89.8451C336.5 90.1505 336.382 90.4411 336.209 90.699L325.483 109.277ZM340.749 82.8371C340.429 83.3151 339.939 83.6534 339.378 83.7835C338.817 83.9137 338.228 83.8259 337.729 83.538C337.231 83.2501 336.86 82.7836 336.692 82.233C336.525 81.6824 336.573 81.0889 336.827 80.5728L347.548 62.0034C347.868 61.5254 348.358 61.1871 348.918 61.0569C349.479 60.9268 350.068 61.0145 350.567 61.3024C351.066 61.5903 351.436 62.0569 351.604 62.6075C351.772 63.158 351.724 63.7515 351.47 64.2677L340.749 82.8371ZM356.014 56.3971C355.877 56.6756 355.684 56.9231 355.447 57.124C355.211 57.3249 354.935 57.475 354.638 57.5652C354.341 57.6553 354.028 57.6835 353.72 57.6479C353.411 57.6124 353.113 57.5138 352.844 57.3585C352.575 57.2031 352.341 56.9943 352.155 56.7448C351.97 56.4953 351.839 56.2105 351.768 55.9081C351.697 55.6057 351.69 55.2921 351.745 54.9867C351.801 54.6813 351.919 54.3907 352.092 54.1328L362.813 35.5634C363.133 35.0854 363.623 34.7471 364.183 34.617C364.744 34.4868 365.333 34.5745 365.832 34.8625C366.331 35.1504 366.701 35.6169 366.869 36.1675C367.037 36.7181 366.989 37.3116 366.735 37.8277L356.014 56.3971ZM371.274 29.9658C370.954 30.4438 370.464 30.7821 369.903 30.9123C369.343 31.0424 368.753 30.9546 368.254 30.6667C367.756 30.3788 367.385 29.9123 367.218 29.3617C367.05 28.8111 367.098 28.2176 367.352 27.7015L378.073 9.13209C378.21 8.85358 378.403 8.60616 378.639 8.40524C378.876 8.20433 379.151 8.05417 379.449 7.96404C379.746 7.87391 380.058 7.84575 380.367 7.8813C380.675 7.91684 380.973 8.01532 381.243 8.17067C381.512 8.32602 381.746 8.53494 381.931 8.78443C382.116 9.03392 382.248 9.3187 382.319 9.62112C382.389 9.92353 382.397 10.2372 382.341 10.5425C382.285 10.8479 382.168 11.1385 381.995 11.3964L371.274 29.9658Z" fill="white"/>
<path d="M394.568 110.248L405.881 90.654L413.242 94.904C417.734 97.4978 418.565 101.622 416.393 105.384C414.221 109.145 410.223 110.445 405.703 107.836L401.914 105.649L398.086 112.279L394.568 110.248ZM403.586 102.753L406.888 104.659C409.54 106.19 411.59 105.389 412.794 103.305C414.012 101.195 413.65 99.0727 410.997 97.5414L407.696 95.6352L403.586 102.753ZM412.064 120.349L420.548 105.654L423.904 107.591L422.498 110.027L422.66 110.121C424.143 108.74 426.14 108.593 427.818 109.562C428.197 109.781 428.723 110.121 429.016 110.362L427.172 113.556C426.937 113.275 426.269 112.745 425.701 112.417C423.779 111.308 421.606 111.821 420.528 113.689L415.528 122.349L412.064 120.349ZM428.82 130.42C424.544 127.951 423.533 123.326 426.158 118.78C428.799 114.206 433.309 112.769 437.585 115.237C441.888 117.722 442.872 122.331 440.231 126.905C437.606 131.451 433.123 132.904 428.82 130.42ZM430.44 127.675C432.795 129.034 435.193 127.568 436.756 124.862C438.302 122.183 438.389 119.346 436.034 117.986C433.626 116.596 431.212 118.089 429.665 120.768C428.103 123.475 428.032 126.284 430.44 127.675ZM447.746 121.356L451.21 123.356L442.241 138.891C440.413 142.057 437.671 142.494 434.423 140.619C434.207 140.494 433.99 140.369 433.735 140.186L435.36 137.371C435.534 137.508 435.696 137.602 435.859 137.695C437.185 138.461 438.09 138.081 438.793 136.863L447.746 121.356ZM450.681 120.272C449.599 119.647 449.163 118.277 449.772 117.222C450.366 116.193 451.77 115.886 452.853 116.511C453.963 117.151 454.371 118.506 453.778 119.534C453.168 120.59 451.791 120.913 450.681 120.272ZM452.932 144.341C448.494 141.779 447.49 137.266 450.147 132.665C452.772 128.119 457.313 126.627 461.508 129.049C465.108 131.127 466.923 135.171 463.939 140.34L463.314 141.422L453.057 135.5C451.652 138.027 452.275 140.354 454.522 141.65C456.037 142.525 457.44 142.47 458.374 141.854L461.756 143.807C459.665 145.991 456.342 146.31 452.932 144.341ZM454.443 133.161L461.371 137.161C462.5 135.143 462.018 132.916 460.015 131.76C457.932 130.557 455.637 131.343 454.443 133.161ZM469.102 153.677C464.718 151.146 463.878 146.475 466.44 142.037C469.034 137.544 473.564 136.01 477.867 138.494C481.44 140.557 482.726 144.078 481.142 147.385L477.84 145.479C478.382 143.915 477.979 142.239 476.301 141.27C474.163 140.036 471.681 141.021 469.978 143.971C468.228 147.002 468.589 149.628 470.754 150.878C472.296 151.768 473.949 151.532 475.168 150.107L478.47 152.013C476.402 154.969 472.782 155.802 469.102 153.677ZM494.55 148.379L493.019 151.031L490.123 149.359L485.717 156.991C484.904 158.398 485.436 159.102 486.302 159.602C486.708 159.837 487.4 160.2 487.849 160.423L486.224 163.238C485.771 163.084 485.063 162.748 484.197 162.248C481.599 160.748 480.331 158.32 481.952 155.575L486.686 147.375L484.575 146.156L486.106 143.504L488.217 144.722L490.249 141.204L493.686 143.189L491.654 146.707L494.55 148.379ZM496.565 169.136L507.878 149.542L511.396 151.573L506.599 159.882L515.72 165.147L520.516 156.839L524.062 158.886L512.749 178.48L509.204 176.433L514.016 168.097L504.896 162.832L500.084 171.167L496.565 169.136Z" fill="#56AFDF"/>
<path d="M518.781 182.251C517.617 181.579 517.216 180.085 517.888 178.921C518.545 177.784 520.039 177.384 521.202 178.056C522.312 178.696 522.739 180.206 522.083 181.343C521.411 182.506 519.89 182.891 518.781 182.251Z" fill="#57CC99"/>
<path d="M548.075 194.978L546.638 197.468L524.283 184.562L525.721 182.072L535.356 187.634L537.652 183.656L530.67 179.625L535.295 171.614L549.368 179.739L551.118 176.708L536.991 168.552L538.397 166.116L555.501 175.991L550.97 183.839L536.924 175.73L535.096 178.896L549.71 187.334L548.288 189.797L540.629 185.375L538.332 189.353L548.075 194.978ZM579.727 213.216L578.305 215.679L555.951 202.773L557.373 200.31L567.034 205.888L569.956 200.827L572.933 202.546L570.011 207.607L579.727 213.216ZM586.708 196.498L585.302 198.934L577.67 194.528C576.116 197.69 577.678 202.327 582.549 206.077L580.08 207.791C576.189 204.75 574.014 200.987 573.944 197.356C570.766 199.112 566.446 199.125 561.867 197.275L562.09 194.265C567.8 196.624 572.584 195.651 574.585 192.747L566.926 188.325L568.333 185.889L576.018 190.327L577.847 187.16L580.824 188.879L578.995 192.045L586.708 196.498ZM613.964 207.508L599.839 231.973L596.971 230.316L604.174 217.84L601.413 216.247L594.929 227.478L592.168 225.884L605.309 203.124L608.07 204.718L602.804 213.838L605.564 215.432L611.096 205.851L613.964 207.508ZM601.142 203.966L599.736 206.401L593.62 202.87L587.339 213.75C590.02 215.262 592.29 216.392 595.032 217.362L593.827 219.949C590.533 218.842 587.915 217.438 584.49 215.497L582.839 214.544L591.995 198.685L601.142 203.966ZM636.71 220.64L633.226 226.675L636.636 228.644L635.199 231.134L631.789 229.165L628.46 234.929L625.456 233.195L633.706 218.906L636.71 220.64ZM615.07 228.497L613.851 230.608L623.675 236.28L624.894 234.169L627.898 235.904L622.757 244.808L606.952 235.683L612.093 226.779L615.07 228.497ZM611.304 235.02L621.128 240.692L622.331 238.608L612.507 232.936L611.304 235.02ZM630.635 220.163L629.244 222.572L614.738 214.197L616.129 211.788L621.893 215.116L623.315 212.654L626.319 214.388L624.897 216.851L630.635 220.163ZM621.507 219.223C625.052 221.27 626.476 224.366 625.003 226.98C623.476 229.562 620.083 229.876 616.538 227.83C612.966 225.767 611.514 222.656 613.014 220.058C614.514 217.46 617.934 217.161 621.507 219.223ZM620.226 221.443C618.358 220.364 616.687 220.446 615.937 221.745C615.172 223.071 615.952 224.532 617.819 225.61C619.687 226.688 621.369 226.649 622.135 225.323C622.885 224.024 622.093 222.521 620.226 221.443ZM662.325 235.429L648.2 259.894L645.223 258.175L659.348 233.71L662.325 235.429ZM644.929 228.56L637.21 241.93C640.678 243.86 644.512 245.658 648.703 247.086L647.629 249.821C642.81 248.23 638.649 246.188 634.86 244.001L632.749 242.782L641.952 226.842L644.929 228.56ZM685.586 248.858L680.226 258.141L683.988 260.313L682.566 262.775L678.804 260.604L671.445 273.35L668.441 271.616L682.582 247.124L685.586 248.858ZM677.53 247.311L676.124 249.746L667.68 244.871L661.196 256.103C664.998 258.298 668.112 259.843 671.825 261.193L670.708 263.94C666.544 262.402 663.18 260.604 658.768 258.057L656.739 256.885L666.082 240.701L677.53 247.311ZM681.048 275.936C679.884 275.264 679.484 273.77 680.156 272.606C680.812 271.469 682.306 271.069 683.47 271.741C684.579 272.381 685.007 273.891 684.35 275.028C683.678 276.192 682.157 276.576 681.048 275.936Z" fill="#25262C"/>
<path d="M332.701 219.859L325.63 232.105L324.108 231.226L331.178 218.98L332.701 219.859ZM333.135 229.086L329.952 234.6L328.497 233.76L333.8 224.575L335.204 225.386L334.374 226.824L334.492 226.892C335.469 226.216 336.676 226.078 338.08 226.889C339.94 227.963 340.521 229.809 339.173 232.143L335.804 237.979L334.349 237.139L337.66 231.405C338.48 229.984 338.191 228.689 336.888 227.937C335.552 227.166 334.053 227.496 333.135 229.086ZM351.01 234.512L342.307 241.733L340.802 240.864L342.722 229.727L344.312 230.645L342.606 239.38L342.708 239.439L349.42 233.594L351.01 234.512ZM347.661 244.824L352.963 235.639L354.418 236.479L349.115 245.664L347.661 244.824ZM354.57 234.537C354.011 234.215 353.799 233.528 354.111 232.987C354.424 232.446 355.125 232.287 355.683 232.609C356.241 232.931 356.47 233.627 356.158 234.169C355.845 234.71 355.128 234.859 354.57 234.537ZM361.09 240.332L360.387 241.549L358.459 240.436L355.383 245.764C354.699 246.948 355.167 247.466 355.793 247.828C356.063 247.984 356.445 248.182 356.675 248.292L355.894 249.645C355.654 249.552 355.263 249.371 354.84 249.127C353.622 248.424 352.759 246.911 353.696 245.287L356.987 239.587L355.6 238.786L356.304 237.568L357.691 238.369L358.96 236.17L360.432 237.019L359.162 239.218L361.09 240.332ZM361.659 253.154C359.004 251.621 358.447 248.796 360.078 245.972C361.709 243.147 364.499 242.142 367.002 243.587C368.931 244.7 370.277 247.056 368.314 250.456L367.962 251.065L361.298 247.217C360.243 249.202 360.761 250.921 362.401 251.869C363.501 252.504 364.468 252.43 365.138 252.051L366.694 252.949C365.454 254.082 363.554 254.248 361.659 253.154ZM362.028 245.992L367.204 248.981C368.092 247.441 367.766 245.742 366.26 244.873C364.67 243.955 362.933 244.62 362.028 245.992ZM381.835 252.309L381.132 253.526L379.204 252.413L376.128 257.741C375.444 258.925 375.912 259.443 376.537 259.805C376.808 259.961 377.19 260.159 377.42 260.269L376.638 261.622C376.399 261.529 376.007 261.348 375.584 261.104C374.367 260.401 373.504 258.888 374.441 257.264L377.732 251.564L376.345 250.763L377.048 249.545L378.435 250.346L379.705 248.147L381.176 248.996L379.907 251.195L381.835 252.309ZM382.302 265.073C379.799 263.627 379.192 260.773 380.842 257.915C382.492 255.056 385.278 254.138 387.781 255.584C390.267 257.019 390.848 259.88 389.198 262.739C387.547 265.597 384.789 266.508 382.302 265.073ZM383.045 263.787C384.888 264.852 386.688 263.726 387.743 261.899C388.798 260.072 388.882 257.934 387.039 256.869C385.161 255.785 383.351 256.928 382.297 258.755C381.242 260.581 381.167 262.703 383.045 263.787ZM389.802 269.29C389.21 268.948 388.986 268.164 389.354 267.565C389.679 266.963 390.47 266.766 391.062 267.108C391.654 267.449 391.861 268.223 391.519 268.815C391.167 269.424 390.394 269.631 389.802 269.29Z" fill="#25262C"/>
<line x1="307.989" y1="256.02" x2="481.194" y2="356.02" stroke="#6F7588" stroke-width="0.93702"/>
<path d="M277.108 312.632L284.178 300.386L285.701 301.265L282.556 306.712L289.034 310.452L292.179 305.005L293.718 305.894L286.648 318.14L285.109 317.251L288.263 311.788L281.785 308.048L278.63 313.511L277.108 312.632ZM293.145 322.139C290.642 320.694 290.034 317.84 291.685 314.981C293.335 312.123 296.12 311.205 298.624 312.65C301.11 314.086 301.691 316.947 300.041 319.806C298.39 322.664 295.632 323.575 293.145 322.139ZM293.887 320.854C295.731 321.918 297.531 320.793 298.586 318.966C299.641 317.139 299.725 315 297.882 313.936C296.004 312.852 294.194 313.995 293.139 315.821C292.085 317.648 292.01 319.77 293.887 320.854ZM299.671 325.659L304.974 316.475L306.378 317.285L305.548 318.723L305.666 318.791C306.622 318.035 307.833 317.968 309.034 318.661C310.235 319.354 310.715 320.398 310.588 321.633L310.69 321.692C311.71 321.018 313.026 320.966 314.345 321.727C315.986 322.675 316.577 324.346 315.327 326.511L311.782 332.651L310.328 331.812L313.863 325.688C314.644 324.335 314.084 323.313 313.086 322.737C311.801 321.995 310.575 322.437 309.901 323.604L306.454 329.575L304.983 328.726L308.606 322.45C309.201 321.419 308.857 320.295 307.809 319.69C306.709 319.055 305.208 319.429 304.437 320.765L301.126 326.499L299.671 325.659ZM318.212 336.612C315.556 335.078 315 332.254 316.63 329.429C318.261 326.604 321.052 325.599 323.555 327.044C325.483 328.158 326.83 330.514 324.867 333.913L324.515 334.522L317.851 330.675C316.795 332.659 317.313 334.379 318.954 335.326C320.054 335.961 321.02 335.888 321.691 335.508L323.247 336.406C322.006 337.539 320.106 337.705 318.212 336.612ZM318.581 329.45L323.756 332.438C324.645 330.899 324.318 329.199 322.813 328.33C321.223 327.412 319.485 328.078 318.581 329.45ZM333.694 333.056L332.991 334.274L331.063 333.161L327.987 338.489C327.303 339.673 327.771 340.191 328.397 340.552C328.667 340.709 329.049 340.907 329.279 341.017L328.498 342.37C328.258 342.277 327.867 342.096 327.444 341.851C326.226 341.148 325.363 339.635 326.3 338.011L329.591 332.311L328.204 331.51L328.908 330.293L330.295 331.093L331.564 328.894L333.036 329.744L331.766 331.943L333.694 333.056ZM334.162 345.82C331.658 344.375 331.051 341.521 332.701 338.662C334.352 335.804 337.137 334.886 339.64 336.331C342.127 337.767 342.707 340.628 341.057 343.487C339.407 346.345 336.648 347.256 334.162 345.82ZM334.904 344.535C336.748 345.599 338.548 344.473 339.602 342.647C340.657 340.82 340.742 338.681 338.898 337.617C337.02 336.533 335.211 337.675 334.156 339.502C333.101 341.329 333.026 343.451 334.904 344.535ZM342.447 350.356L344.959 339.56L346.498 340.448L344.417 348.584L344.502 348.633L350.49 342.753L352.046 343.652L349.934 351.724L350.035 351.782L356.021 345.946L357.543 346.825L349.45 354.399L348.012 353.569L350.059 345.414L349.924 345.335L343.902 351.196L342.447 350.356ZM358.832 352.463L355.648 357.978L354.194 357.138L359.497 347.953L360.9 348.764L360.07 350.201L360.189 350.27C361.166 349.593 362.373 349.456 363.777 350.266C365.637 351.341 366.218 353.187 364.87 355.521L361.501 361.356L360.046 360.517L363.357 354.783C364.177 353.362 363.887 352.067 362.585 351.315C361.249 350.543 359.75 350.873 358.832 352.463ZM365.155 363.601C364.563 363.26 364.338 362.476 364.707 361.877C365.032 361.275 365.822 361.078 366.414 361.419C367.006 361.761 367.214 362.535 366.872 363.127C366.52 363.736 365.747 363.943 365.155 363.601Z" fill="#25262C"/>
<line x1="260.989" y1="337.426" x2="434.194" y2="437.426" stroke="#6F7588" stroke-width="0.93702"/>
<path d="M299.868 22.0859L230.586 -17.9141L228.1 -13.6089L297.382 26.3911L299.868 22.0859Z" fill="#6F7588"/>
<path d="M296.356 28.1689L227.074 -11.8311L225.6 -9.27846L294.882 30.7215L296.356 28.1689Z" fill="#6F7588"/>
<path d="M293.966 32.3086L224.684 -7.69141L220.636 -0.681352L289.918 39.3187L293.966 32.3086Z" fill="#6F7588"/>
<path d="M288.994 40.9199L219.712 0.919922L219.192 1.82157L288.474 41.8216L288.994 40.9199Z" fill="#6F7588"/>
<path d="M284.577 48.5703L215.295 8.57031L214.558 9.84661L283.84 49.8466L284.577 48.5703Z" fill="#6F7588"/>
<path d="M282.341 52.4443L213.059 12.4443L210.881 16.2161L280.163 56.2161L282.341 52.4443Z" fill="#6F7588"/>
<path d="M276.91 61.8486L207.628 21.8486L207.199 22.5916L276.482 62.5916L276.91 61.8486Z" fill="#6F7588"/>
<path d="M275.009 65.1436L205.727 25.1436L202.783 30.2424L272.065 70.2424L275.009 65.1436Z" fill="#6F7588"/>
<path d="M270.592 72.7939L201.31 32.7939L200.419 34.337L269.701 74.337L270.592 72.7939Z" fill="#6F7588"/>
<path d="M266.91 79.1699L197.628 39.1699L197.016 40.2303L266.298 80.2303L266.91 79.1699Z" fill="#6F7588"/>
<path d="M263.23 85.5449L193.948 45.5449L191.799 49.2658L261.082 89.2658L263.23 85.5449Z" fill="#6F7588"/>
<path d="M259.549 91.9209L190.267 51.9209L187.323 57.0197L256.605 97.0197L259.549 91.9209Z" fill="#6F7588"/>
<path d="M255.136 99.5645L185.854 59.5645L185.117 60.8407L254.399 100.841L255.136 99.5645Z" fill="#6F7588"/>
<path d="M252.188 104.67L182.906 64.6699L182.415 65.5208L251.697 105.521L252.188 104.67Z" fill="#6F7588"/>
<path d="M250.839 107.007L181.557 67.0068L181.066 67.8577L250.348 107.858L250.839 107.007Z" fill="#6F7588"/>
<path d="M248.508 111.045L179.226 71.0449L178.489 72.3212L247.771 112.321L248.508 111.045Z" fill="#6F7588"/>
<path d="M245.442 116.354L176.16 76.3545L173.462 81.0279L242.744 121.028L245.442 116.354Z" fill="#6F7588"/>
<path d="M240.658 124.641L171.375 84.6406L170.393 86.3423L239.675 126.342L240.658 124.641Z" fill="#6F7588"/>
<path d="M237.47 130.164L168.188 90.1641L166.164 93.6691L235.446 133.669L237.47 130.164Z" fill="#6F7588"/>
<path d="M233.418 137.181L164.136 97.1807L163.399 98.457L232.681 138.457L233.418 137.181Z" fill="#6F7588"/>
<path d="M230.107 142.915L160.825 102.915L160.088 104.191L229.37 144.191L230.107 142.915Z" fill="#6F7588"/>
<path d="M226.427 149.29L157.145 109.29L156.778 109.925L226.06 149.925L226.427 149.29Z" fill="#6F7588"/>
<path d="M225.587 150.744L156.305 110.744L155.939 111.379L225.221 151.379L225.587 150.744Z" fill="#6F7588"/>
<path d="M224.748 152.197L155.466 112.197L155.099 112.832L224.381 152.832L224.748 152.197Z" fill="#6F7588"/>
<path d="M222.746 155.665L153.464 115.665L151.99 118.218L221.272 158.218L222.746 155.665Z" fill="#6F7588"/>
<path d="M219.494 161.297L150.212 121.297L147.881 125.335L217.163 165.335L219.494 161.297Z" fill="#6F7588"/>
<path d="M215.385 168.415L146.103 128.415L144.629 130.968L213.911 170.968L215.385 168.415Z" fill="#6F7588"/>
<path d="M211.704 174.789L142.422 134.789L141.685 136.065L210.968 176.065L211.704 174.789Z" fill="#6F7588"/>
<path d="M210.169 177.45L140.887 137.45L140.15 138.726L209.432 178.726L210.169 177.45Z" fill="#6F7588"/>
<path d="M208.023 181.165L138.741 141.165L138.004 142.441L207.286 182.441L208.023 181.165Z" fill="#6F7588"/>
<path d="M204.892 186.588L135.61 146.588L133.033 151.052L202.315 191.052L204.892 186.588Z" fill="#6F7588"/>
<path d="M199.925 195.191L130.643 155.191L129.906 156.468L199.188 196.468L199.925 195.191Z" fill="#6F7588"/>
<path d="M197.656 199.122L128.374 159.122L125.551 164.011L194.833 204.011L197.656 199.122Z" fill="#6F7588"/>
<path d="M193.301 206.666L124.019 166.666L121.995 170.171L191.277 210.171L193.301 206.666Z" fill="#6F7588"/>
<path d="M189.066 214L119.784 174L118.864 175.594L188.146 215.594L189.066 214Z" fill="#6F7588"/>
<path d="M185.019 221.01L115.737 181.01L115.184 181.969L184.466 221.969L185.019 221.01Z" fill="#6F7588"/>
<path d="M183.087 224.355L113.805 184.355L110.678 189.772L179.96 229.772L183.087 224.355Z" fill="#6F7588"/>
<path d="M178.578 232.165L109.296 192.165L108.713 193.175L177.995 233.175L178.578 232.165Z" fill="#6F7588"/>
<path d="M174.898 238.541L105.616 198.541L104.879 199.817L174.161 239.817L174.898 238.541Z" fill="#6F7588"/>
<path d="M172.075 243.43L102.793 203.43L100.586 207.252L169.868 247.252L172.075 243.43Z" fill="#6F7588"/>
</svg>
